<?xml version="1.0" encoding="utf-8"?>
<!-- Generator: Adobe Illustrator 21.0.0, SVG Export Plug-In . SVG Version: 6.00 Build 0)  -->
<svg version="1.1" id="Layer_1" xmlns="http://www.w3.org/2000/svg" xmlns:xlink="http://www.w3.org/1999/xlink" x="0px" y="0px"
	 viewBox="0 0 57.2 15.1" style="enable-background:new 0 0 57.2 15.1;" xml:space="preserve">
<style type="text/css">
	.st0{fill:#4D4D4F;}
	.st1{clip-path:url(#SVGID_2_);fill:#4D4D4F;}
	.st2{clip-path:url(#SVGID_2_);fill:#F05424;}
</style>
<rect x="37.7" y="0.2" class="st0" width="0.9" height="14.6"/>
<g>
	<defs>
		<rect id="SVGID_1_" y="0" width="57.2" height="15.1"/>
	</defs>
	<clipPath id="SVGID_2_">
		<use xlink:href="#SVGID_1_"  style="overflow:visible;"/>
	</clipPath>
	<path class="st1" d="M41.6,4.9h0.9v10h-0.9V4.9z M41.5,2.8c-0.1-0.2-0.2-0.4-0.2-0.6s0.1-0.4,0.2-0.6c0.1-0.2,0.3-0.2,0.5-0.2
		c0.2,0,0.4,0.1,0.5,0.2c0.1,0.2,0.2,0.4,0.2,0.6s-0.1,0.4-0.2,0.6C42.4,2.9,42.2,3,42,3C41.8,3,41.7,2.9,41.5,2.8"/>
	<path class="st1" d="M45.6,5.7h-1.3V4.9h1.3V4.4c0-1.4,0.2-2.5,0.6-3.3C46.6,0.4,47.3,0,48.2,0c0.2,0,0.5,0,0.7,0.1
		c0.2,0.1,0.4,0.1,0.6,0.2l-0.3,0.8c-0.3-0.2-0.6-0.2-1-0.2c-0.7,0-1.1,0.3-1.4,0.9c-0.2,0.6-0.4,1.5-0.4,2.7v0.5h2.2v0.8h-2.2v9.2
		h-0.9V5.7z"/>
	<path class="st1" d="M56.3,9.1L56.3,9.1c0-1.1-0.2-2-0.7-2.6c-0.4-0.7-1.1-1-2-1c-0.9,0-1.6,0.4-2.1,1.1c-0.5,0.7-0.8,1.6-0.9,2.6
		H56.3z M51.6,14.4c-0.6-0.4-1.1-1-1.5-1.8c-0.3-0.8-0.5-1.6-0.5-2.6c0-1,0.2-2,0.5-2.8c0.3-0.8,0.8-1.4,1.4-1.9
		c0.6-0.5,1.3-0.7,2.1-0.7c0.9,0,1.6,0.2,2.1,0.7c0.5,0.5,0.9,1,1.1,1.7c0.2,0.7,0.3,1.3,0.3,2c0,0.3,0,0.6-0.1,0.9h-6.6
		c0,1.3,0.3,2.4,0.9,3.2c0.6,0.8,1.4,1.2,2.5,1.2c0.9,0,1.8-0.2,2.5-0.5l0.2,0.7c-0.3,0.2-0.7,0.3-1.2,0.4c-0.5,0.1-1,0.2-1.7,0.2
		C53,15.1,52.2,14.9,51.6,14.4"/>
	<path class="st2" d="M4.2,1.9C4.8,2,5.4,2.1,6,2.3c0.9,0.3,1.6,0.9,2.2,1.5h2.1c-0.3-0.5-0.7-1-1.1-1.4c-0.8-0.8-1.8-1.3-3-1.6
		C5,0.4,3.6,0.3,2,0.3h0H0v9.6h1.9V2V1.8l0.2,0C2.8,1.8,3.5,1.8,4.2,1.9"/>
	<path class="st1" d="M10.8,5H8.9c0.3,0.7,0.5,1.5,0.6,2.3c0,0.9-0.1,1.7-0.4,2.5c-0.5,1.3-1.4,2.4-2.7,3.1
		c-0.6,0.3-1.3,0.5-2.1,0.5c-0.7,0.1-1.6,0.1-2.4,0V15c1.7,0.1,3.1-0.1,4.4-0.5c1.3-0.4,2.3-1,3.1-1.9c1.2-1.4,1.9-3.3,1.8-5.2
		C11.2,6.6,11,5.8,10.8,5"/>
	<path class="st1" d="M18.3,15h0.3v-1.5c-1,0-2,0-2.8-0.3c-0.9-0.3-1.7-1-2-2.2l-0.1-0.2h0.2h4.7V9.1h-4.7h-0.2l0.1-0.2
		c0.1-0.5,0.4-0.9,0.7-1.3c0.3-0.4,0.7-0.6,1.1-0.8l0.1-0.1l0,0c0.8-0.3,1.9-0.3,2.8-0.3l0.1,0V4.9h-0.3c-0.9,0-1.8,0-2.7,0.2
		c-1.1,0.3-2,0.9-2.6,1.7c-0.6,0.8-1,1.8-1,2.8l0,0.2v0v0c0,0.8,0.1,1.6,0.5,2.3c0.3,0.7,0.8,1.3,1.4,1.8C15.2,15,16.6,15,18.3,15"
		/>
	<path class="st1" d="M26.2,15v-1.3v-0.2c-1,0-2,0-2.9-0.3c-0.9-0.3-1.7-1-2-2.3c-0.2-0.8-0.1-1.7,0.2-2.5c0.3-0.7,0.9-1.3,1.6-1.6
		l0.2-0.1v0c0.8-0.3,1.8-0.3,2.7-0.2l0.1,0V4.9h-0.3c-0.9,0-1.8,0-2.7,0.2c-1.1,0.3-2,0.9-2.6,1.7c-0.6,0.8-1,1.8-1,2.8l0,0.2v0v0
		c0,0.8,0.1,1.6,0.5,2.3c0.3,0.7,0.8,1.3,1.4,1.8C22.9,15,24.3,15,26,15H26.2z"/>
	<path class="st1" d="M31.3,13.7c-2.1,0-3.8-1.7-3.8-3.7c0-2.1,1.7-3.7,3.8-3.7s3.8,1.7,3.8,3.7C35.1,12,33.4,13.7,31.3,13.7
		 M31.3,4.9c-2.9,0-5.2,2.3-5.2,5.1c0,2.8,2.3,5.1,5.2,5.1c2.9,0,5.2-2.3,5.2-5.1C36.5,7.1,34.1,4.9,31.3,4.9"/>
	<path class="st2" d="M43.3,2.2c0,0.7-0.6,1.3-1.3,1.3c-0.7,0-1.3-0.6-1.3-1.3c0-0.7,0.6-1.3,1.3-1.3C42.8,0.9,43.3,1.5,43.3,2.2"/>
</g>
</svg>
