<?xml version="1.0" encoding="utf-8"?>
<!-- Generator: Adobe Illustrator 21.1.0, SVG Export Plug-In . SVG Version: 6.00 Build 0)  -->
<svg version="1.1" id="Режим_изоляции"
	 xmlns="http://www.w3.org/2000/svg" xmlns:xlink="http://www.w3.org/1999/xlink" x="0px" y="0px" viewBox="0 0 1502.3 447.3"
	 style="enable-background:new 0 0 1502.3 447.3;" xml:space="preserve">
<style type="text/css">
	.st0{fill:#4D4D4F;}
	.st1{fill:#E73646;}
</style>
<title>Gaviota</title>
<g>
	<path class="st0" d="M642.1,390.3c-9.2,0-18.2-4.2-23.1-9.5l-0.2-1.6l5.7-7.6l1.3-0.1c4.1,3.7,10.1,7.6,17.1,7.6
		c7.5,0,11.9-4.3,11.9-10.4c0-5.2-2.8-8.6-11.5-10l-3.3-0.5c-12.1-1.9-19-8.6-19-20.5c0-13,8.3-21.7,21.3-21.7
		c7.9,0,15.3,2.9,20.4,7.2l0.2,1.5l-4.5,7.8l-1.3,0.3c-5.1-3.8-9.8-5.6-15.1-5.6c-6.4,0-9.9,4-9.9,9.6c0,5,3.1,8.4,11.6,9.7l3.3,0.5
		c12.1,1.9,18.8,8.5,18.8,20.9C665.7,380.8,657.7,390.3,642.1,390.3"/>
	<path class="st0" d="M699,390.3c-9.5,0-15.4-8-15.4-19v-32.2l0.9-1h8.5l0.9,1v29.4c0,6.5,2.7,11.1,8.3,11.1c5.3,0,8.3-4.6,8.3-11
		v-29.5l0.9-1h8.5l0.9,1v48.9l-0.9,1.1h-8.5l-0.9-1.1v-3.7h-0.1C708.2,387.9,704.7,390.3,699,390.3"/>
	<path class="st0" d="M779.1,389.2h-8.5l-0.9-1.1v-29.4c0-6.6-2.9-11.1-8.4-11.1c-5.4,0-8.5,4.6-8.5,11.1v29.4l-0.9,1.1h-8.5
		l-0.9-1.1v-48.9l0.9-1h8.5l0.9,1v3.7h0.1c1.9-3.2,5.8-5.9,11.8-5.9c9.5,0,15.4,8,15.4,18.9v32.2L779.1,389.2z"/>
	<polygon class="st0" points="871.1,389.2 831.7,389.2 830.8,388.1 830.8,318.3 831.7,317.2 840.8,317.2 841.7,318.3 841.7,377.3 
		842.3,378 871.1,378 872.1,379 872.1,388.1 	"/>
	<path class="st0" d="M889.8,338.2l-0.9,1v48.9l0.9,1.1h8.5l0.9-1.1v-48.9l-0.9-1H889.8z M889.8,317.2l-0.9,1.1v9.2l0.9,1.1h8.5
		l0.9-1.1v-9.2l-0.9-1.1H889.8z"/>
	<path class="st0" d="M931.5,389.2H923l-0.9-1.1V348l-0.5-0.6h-3l-0.9-1.1v-7.1l0.9-1h3l0.5-0.7v-3.3c0-11.8,5.1-17,14.8-17h4.1
		l0.9,1.1v8.5l-0.9,1.1H938c-4.6,0-5.6,1.3-5.6,6.2v3.5l0.5,0.7h8l0.9,1v7.1l-0.9,1.1h-8l-0.5,0.6v40.1L931.5,389.2z"/>
	<path class="st0" d="M976.2,347c-4.3,0-7.6,2.5-8.8,6.6c-0.4,1.3-0.6,2.6-0.6,4.3l0.6,0.6h17.5l0.5-0.6c0-1.8-0.2-3.1-0.5-4.3
		C983.7,349.5,980.4,347,976.2,347 M976.6,390.3c-9.4,0-16.1-5.3-18.6-14.2c-0.9-3.3-1.6-7.2-1.6-12.5c0-5.3,0.6-9.3,1.5-12.6
		c2.5-8.9,9.4-14.1,18.2-14.1c9.1,0,15.8,5.4,18.3,14.1c1,3.6,1.5,7.1,1.5,15.4l-1,1.1h-27.5l-0.6,0.6c0,1.5,0.3,2.8,0.6,3.9
		c1.5,5,5,7.7,10,7.7c5,0,8.2-2.1,10.5-4.9l1.4-0.2l5.5,5.5l0.1,1.5C991.1,386.8,984.8,390.3,976.6,390.3"/>
	<path class="st0" d="M1064.5,390.3c-9.3,0-18.2-4.2-23.1-9.5l-0.2-1.6l5.7-7.6l1.3-0.1c4.1,3.7,10.1,7.6,17.1,7.6
		c7.5,0,11.8-4.3,11.8-10.4c0-5.2-2.8-8.6-11.5-10l-3.3-0.5c-12.1-1.9-19-8.6-19-20.5c0-13,8.3-21.7,21.3-21.7
		c7.8,0,15.4,2.9,20.3,7.2l0.2,1.5l-4.4,7.8l-1.3,0.3c-5.1-3.8-9.8-5.6-15.1-5.6c-6.4,0-9.9,4-9.9,9.6c0,5,3,8.4,11.6,9.7l3.3,0.5
		c12.1,1.9,18.8,8.5,18.8,20.9C1088.2,380.8,1080.2,390.3,1064.5,390.3"/>
	<path class="st0" d="M1126.3,347.6c-4.3,0-7.1,2.3-8.3,6.6c-0.6,2.3-0.9,4.9-0.9,9.5s0.3,7.2,0.9,9.5c1.2,4.2,4.1,6.6,8.3,6.6
		c4.2,0,7-2.3,8.2-6.6c0.6-2.3,0.9-4.9,0.9-9.5s-0.3-7.2-0.9-9.5C1133.4,349.9,1130.5,347.6,1126.3,347.6 M1116.2,408.2h-8.5
		l-0.9-1.1v-68l0.9-1.1h8.5l0.9,1.1v3.8h0.1c2.1-3.5,5.8-6,11.8-6c7.6,0,13.1,4.1,15.5,12.3c1.1,3.9,1.6,7.5,1.6,14.4
		c0,6.9-0.5,10.5-1.6,14.4c-2.3,8.2-7.9,12.3-15.5,12.3c-6,0-9.7-2.5-11.8-6h-0.1v22.9L1116.2,408.2z"/>
	<path class="st0" d="M1182.4,347c-4.3,0-7.6,2.5-8.8,6.6c-0.4,1.3-0.6,2.6-0.6,4.3l0.6,0.6h17.5l0.6-0.6c0-1.8-0.2-3.1-0.6-4.3
		C1189.9,349.5,1186.5,347,1182.4,347 M1182.7,390.3c-9.4,0-16.1-5.3-18.6-14.2c-0.9-3.3-1.6-7.2-1.6-12.5c0-5.3,0.6-9.3,1.5-12.6
		c2.5-8.9,9.3-14.1,18.2-14.1c9.1,0,15.8,5.4,18.3,14.1c1,3.6,1.5,7.1,1.5,15.4l-1,1.1h-27.5l-0.6,0.6c0,1.5,0.3,2.8,0.6,3.9
		c1.5,5,5,7.7,10,7.7c5,0,8.2-2.1,10.5-4.9l1.4-0.2l5.5,5.5l0.1,1.5C1197.3,386.8,1191,390.3,1182.7,390.3"/>
	<path class="st0" d="M1238.4,390.3c-9,0-15.8-5-18.4-14.1c-0.9-3.2-1.4-7.2-1.4-12.6c0-5.4,0.5-9.4,1.4-12.6
		c2.6-9.1,9.4-14.1,18.4-14.1c6.7,0,11.9,3.1,15.5,7.9l-0.1,1.5l-5.8,5.8l-1.3-0.2c-2.2-2.8-4.5-4.5-8.2-4.5c-4,0-7,2.2-8.3,6.7
		c-0.7,2.5-0.9,5.5-0.9,9.4c0,3.9,0.2,7,0.9,9.5c1.3,4.3,4.4,6.6,8.3,6.6c3.7,0,6-1.6,8.2-4.5l1.3-0.1l5.8,5.8l0.1,1.5
		C1250.3,387.3,1245.1,390.3,1238.4,390.3"/>
	<path class="st0" d="M1273.7,338.2l-0.9,1v48.9l0.9,1.1h8.5l0.9-1.1v-48.9l-0.9-1H1273.7z M1273.7,317.2l-0.9,1.1v9.2l0.9,1.1h8.5
		l0.9-1.1v-9.2l-0.9-1.1H1273.7z"/>
	<path class="st0" d="M1322,367.5c-6.7,0-9.6,2.1-9.6,6.9c0,4.2,2.7,6.4,7.7,6.4c6.4,0,9.9-2.9,9.9-8.7v-3.9l-0.6-0.6H1322z
		 M1317.5,390.4c-8.1,0-15-4.9-15-15.6c0-11.1,6.8-16.2,17.8-16.2h9.1l0.6-0.6v-2.4c0-5.8-2.4-8.5-9.9-8.5c-5,0-8,1.6-10.2,3.5
		l-1.3-0.2l-3.4-7l0.2-1.4c3.6-3,8.5-5,15.8-5c13.6,0,18.6,5.3,18.6,17.8v33.3l-0.9,1.1h-7.8l-0.9-1.1v-3.7h-0.1
		C1327.9,387.9,1323.8,390.4,1317.5,390.4"/>
	<path class="st0" d="M1376.9,389.8h-4.1c-8.7,0-12.2-4.8-12.2-14.6v-57l0.9-1.1h8.5l0.9,1.1v56.3c0,3.5,1.2,4.7,3.9,4.7h2l0.9,1.1
		v8.5L1376.9,389.8z"/>
	<path class="st0" d="M1396.5,338.2l-0.9,1v48.9l0.9,1.1h8.5l0.9-1.1v-48.9l-0.9-1H1396.5z M1396.5,317.2l-0.9,1.1v9.2l0.9,1.1h8.5
		l0.9-1.1v-9.2l-0.9-1.1H1396.5z"/>
	<path class="st0" d="M1443.7,390.3c-9.1,0-15.4-4.1-19.1-8v-1.5l5.3-6.4h1.3c3.2,3.4,8.4,5.8,13,5.8c5.5,0,8.2-2.5,8.2-6
		c0-3.1-1.6-5-7.4-5.6l-4.8-0.5c-9.1-1.1-13.7-6.4-13.7-15c0-9.8,6.2-16.1,17.3-16.1c6.9,0,12.8,2.6,16.7,6.2l0.2,1.5l-4.5,6.2
		l-1.3,0.2c-2.8-2.2-7.2-4.2-11.6-4.2c-4.5,0-6.8,2.2-6.8,5.3c0,3,1.5,4.8,7.3,5.4l4.8,0.5c9.3,1.1,13.8,6.6,13.8,14.9
		C1462.4,383.3,1456,390.3,1443.7,390.3"/>
	<path class="st0" d="M1498.7,389.8h-4.4c-9,0-12.4-5-12.4-14.9V348l-0.6-0.6h-3l-0.9-1.1v-7.1l0.9-1h3l0.6-0.7v-14l0.9-1.1h8.5
		l0.9,1.1v14l0.5,0.7h5.9l0.9,1v7.1l-0.9,1.1h-5.9l-0.5,0.6v26.5c0,3.6,1.3,4.8,4.2,4.8h2.3l0.9,1.1v8.5L1498.7,389.8z"/>
	<path class="st1" d="M71,271.6c-12.6-4.5-23.8-10.8-33.5-18.9c-11.7-9.7-20.9-22.2-27.6-37.2C3.3,200.5,0,182.8,0,162.7
		c0-13.3,1.5-25.7,4.5-36.7c3-11,7.4-21.1,12.9-30c5.6-8.9,12.4-16.7,20.3-23.2c7.8-6.4,16.4-11.7,25.7-15.8c2.5-1.1,5-2.1,7.6-3.1
		V97c-4.5,2.5-8.5,5.4-12,8.6c-6.9,6.3-12.2,14.3-15.8,23.6c-3.7,9.6-5.5,20.9-5.5,33.5c0,12.8,1.8,24.1,5.5,33.7
		c3.5,9.3,8.9,17.2,15.8,23.6c3.5,3.2,7.6,6.1,12,8.6V271.6z"/>
	<path class="st0" d="M464.8,160.8c-24,1.7-44.9,4-62.3,6.8c-19.8,3.2-36.2,7.1-48.5,11.6c-11.5,4.2-19.8,9-24.7,14.1
		c-4,4.2-5.8,8.3-5.8,13.1c0,4.3,0.9,7.8,2.7,11c2,3.5,5.1,6.4,9.1,8.9c4.6,2.8,10.4,5,17.3,6.5c7.2,1.6,15.6,2.4,24.8,2.4
		c5.6,0,11.3-0.3,17-1c5.8-0.7,11.8-1.7,17.8-3c6.1-1.3,12-2.8,17.6-4.5c5.6-1.7,11.1-3.7,16.1-5.8c4.9-2,9.4-4.2,13.4-6.5
		c2-1.1,3.7-2.2,5.4-3.3V160.8z M372.4,275.3c-12.5,0-24-1.3-34.2-3.9c-10.7-2.7-19.8-6.8-27.3-12.3c-8-5.8-14.2-13.1-18.6-21.7
		c-4.4-8.8-6.7-18.9-6.7-30.2c0-11.4,2.6-21.7,7.9-30.7c4.9-8.5,12-15.8,20.9-21.9c8.3-5.7,18.4-10.6,30-14.5
		c11.2-3.8,23.7-7,37.3-9.6c13.7-2.6,28.4-4.8,43.9-6.4c12.7-1.4,25.9-2.5,39.3-3.5v-4.6c0-4.5-0.7-8.5-2.1-11.7
		c-1.5-3.4-3.6-6.4-6.3-9c-3-2.8-6.6-5.2-10.7-7.2c-4.5-2.2-9.5-3.9-14.9-5.2c-5.3-1.4-11.1-2.3-17.5-3c-6.4-0.6-12.8-0.9-18.9-0.9
		c-8.5,0-16.3,0.5-23.2,1.4c-7,1-13.5,2.3-19.3,3.9c-6.2,1.7-12,3.6-17.4,5.7c-5.5,2.2-11.1,4.5-17.3,7.2l-14.2,6.1V55.5l7.7-2.4
		c12.7-3.8,26.2-7.1,40.3-9.8c14.5-2.8,30-4.3,46.2-4.3c13.7,0,26.9,1.3,39.1,4c12.6,2.8,23.7,7.3,33.2,13.5
		c10,6.5,17.9,15.1,23.7,25.5c5.9,10.7,8.9,23.6,8.9,38.4v150.8h-37.4v-16c-2.5,1.2-5.1,2.3-7.7,3.3c-8.3,3.4-17.3,6.4-26.7,8.9
		c-9.4,2.5-19.1,4.5-28.8,5.8C391.7,274.6,381.9,275.3,372.4,275.3"/>
	<polygon class="st0" points="708.3,42.8 629.4,220.4 550.5,42.8 508.6,42.8 610.1,271.2 647.8,271.2 750.1,42.8 	"/>
	<rect x="772.5" y="42.8" class="st0" width="37.5" height="228.4"/>
	<path class="st0" d="M965,79.1c-15.1,0-28.5,1.8-40,5.5c-10.9,3.5-20.1,8.6-27.3,15.2c-7,6.3-12.3,14.3-15.9,23.7
		c-3.7,9.7-5.5,21-5.5,33.6c0,12.8,1.9,24.2,5.5,33.9c3.6,9.3,8.9,17.3,15.9,23.6c7.1,6.5,16.3,11.7,27.3,15.2
		c11.3,3.6,24.7,5.4,40,5.4c15.2,0,28.6-1.8,39.8-5.4c10.9-3.5,20-8.6,27-15.1c6.9-6.4,12.2-14.3,15.7-23.7c3.6-9.6,5.4-21,5.4-33.9
		c0-12.9-1.9-24.3-5.5-33.9c-3.5-9.3-8.8-17.3-15.7-23.6c-7.1-6.6-16.2-11.6-27-15.1C993.5,80.9,980.1,79.1,965,79.1 M965,275.3
		c-17.1,0-33.4-2.2-48.4-6.7c-15.4-4.5-29-11.7-40.4-21.2c-11.7-9.8-21.1-22.4-27.7-37.3c-6.6-14.9-10-32.7-10-52.9
		c0-13.4,1.5-25.7,4.6-36.8c3-11.1,7.4-21.3,13-30.2c5.5-8.9,12.4-16.7,20.4-23.2c7.7-6.3,16.4-11.7,25.8-15.8
		c9.3-4.2,19.4-7.2,29.9-9.2C942.6,40,953.7,39,965,39c17.1,0,33.3,2.2,48.2,6.7c15.3,4.5,28.8,11.7,40.2,21.2
		c11.6,9.8,20.8,22.3,27.5,37.3c6.6,15,10,32.8,10,52.9c0,20.1-3.4,38-10,52.9c-6.7,15-15.9,27.5-27.5,37.3
		c-11.4,9.6-24.9,16.7-40.2,21.3C998.3,273,982.1,275.3,965,275.3"/>
	<path class="st0" d="M1465,160.8c-24,1.7-44.9,4-62.3,6.8c-19.8,3.2-36.1,7.1-48.5,11.6c-11.3,4.2-19.9,9.1-24.7,14.1
		c-3.9,4.2-5.8,8.3-5.8,13.1c0,4.3,0.9,7.8,2.7,11c2,3.4,5.1,6.4,9.1,8.9c4.6,2.8,10.4,5,17.2,6.5c7.2,1.6,15.6,2.4,24.9,2.4
		c5.6,0,11.3-0.3,17-1c6-0.7,12-1.7,17.8-3c6.1-1.3,12-2.8,17.6-4.6c5.8-1.8,11.2-3.7,16.1-5.8c5-2,9.5-4.2,13.4-6.5
		c2-1.1,3.8-2.2,5.4-3.3V160.8z M1372.5,275.3c-12.5,0-23.9-1.3-34.2-3.8c-9.9-2.5-18.5-6.4-25.8-11.3l-3.3,1
		c-12.5,3.7-26,7-40.3,9.9c-14.6,2.8-30.1,4.3-46.2,4.3c-13.8,0-27-1.3-39.2-4c-12.7-2.8-23.8-7.4-33.3-13.6
		c-9.9-6.5-17.9-15.1-23.6-25.5c-5.9-10.6-8.9-23.5-8.9-38.4V43.1h37.3v22.7h62.6v44h-63.6l1,72.6l0,15.8c0,4.5,0.7,8.5,2.1,11.7
		c1.5,3.4,3.5,6.3,6.3,8.9c3,2.8,6.6,5.3,10.7,7.2c4.5,2.1,9.5,3.9,14.9,5.3c5.5,1.3,11.4,2.4,17.4,2.9c6.3,0.6,12.7,0.9,19,0.9
		c8.4,0,16.2-0.5,23.2-1.4c6.8-0.9,13.3-2.2,19.3-3.9c5.9-1.6,11.8-3.5,17.4-5.7l2-0.8c-1.2-5.1-1.7-10.5-1.7-16.2
		c0-11.5,2.7-21.8,7.9-30.7c4.9-8.4,11.9-15.7,20.8-21.9c8.4-5.7,18.5-10.6,30-14.5c11.2-3.8,23.7-7,37.3-9.6
		c13.7-2.6,28.4-4.8,43.8-6.4c12.8-1.4,25.9-2.5,39.3-3.5v-4.6c0-4.6-0.7-8.5-2.1-11.7c-1.5-3.4-3.6-6.4-6.3-9
		c-3-2.9-6.6-5.3-10.7-7.2c-4.6-2.2-9.6-4-14.8-5.2c-5.3-1.4-11.2-2.3-17.5-3c-6.4-0.6-12.8-0.9-18.9-0.9c-8.5,0-16.3,0.5-23.2,1.4
		c-7,1-13.5,2.3-19.4,3.9c-6,1.6-11.8,3.5-17.4,5.7c-5.5,2.2-11.2,4.5-17.3,7.2l-14.2,6.1V55.5l7.7-2.4c12.7-3.8,26.2-7.1,40.3-9.8
		c14.5-2.8,30-4.3,46.2-4.3c13.7,0,26.9,1.3,39.1,4c12.5,2.8,23.7,7.3,33.3,13.5c10,6.6,17.9,15.1,23.7,25.5
		c5.9,10.7,8.9,23.6,8.9,38.4v150.8H1465v-16c-2.5,1.2-5.1,2.3-7.7,3.3c-8.3,3.4-17.3,6.4-26.7,8.9c-9.5,2.5-19.1,4.5-28.9,5.8
		C1391.9,274.6,1382.1,275.3,1372.5,275.3"/>
	<path class="st0" d="M126.1,351.4c-19.8,0-38.8-1.4-56.3-4.1c-17.5-2.7-34.1-5.9-49.3-9.5l-8.3-1.9v-46.4l13.5,4.6
		c6.8,2.3,13.8,4.6,21.6,7c7.1,2.1,14.4,4,21.8,5.6c7.7,1.7,15.9,2.9,24.5,3.8c8.6,0.9,18.4,1.4,29.2,1.4c7.9,0,16-0.3,23.8-0.9
		c7.5-0.6,15-1.5,22.2-2.9c6.7-1.3,13.2-3.1,19.1-5.3c5.3-2,10.3-3.8,12.9-6.5l1.3-1.3c4.2-4,10.4-9.8,11.6-31.4v-10.8
		c-11.3,9.4-24.6,16.4-39.7,20.9c-14.9,4.4-31.1,6.6-48,6.6c-6.8,0-13.5-0.5-20-1.2v-39.9c6.3,0.8,12.9,1.2,20,1.2
		c15.1,0,28.5-1.8,39.7-5.4c10.8-3.5,19.8-8.5,26.9-15c6.9-6.4,12.1-14.3,15.6-23.5c3.6-9.6,5.5-21,5.5-33.8
		c0-12.8-1.9-24.1-5.5-33.8c-3.5-9.3-8.8-17.2-15.6-23.6c-7.1-6.5-16.1-11.6-26.9-15C154.4,86.8,141.1,85,126,85
		c-7.1,0-13.7,0.4-20,1.2v-40c6.5-0.7,13.2-1.1,20-1.1c16.9,0,33.1,2.2,48,6.6c15.1,4.5,28.4,11.5,39.7,20.9V43.5h37.2v216.2
		c0.3,15.5,0.9,52.2-36.8,74.9c-12.3,7.5-27.3,10.8-40.4,13C158.9,350.1,142.9,351.4,126.1,351.4"/>
</g>
</svg>
