<svg id="Слой_1" data-name="Слой 1" xmlns="http://www.w3.org/2000/svg" xmlns:xlink="http://www.w3.org/1999/xlink" viewBox="0 0 61.71 16.81"><defs><style>.cls-1{fill:none;}.cls-2{fill:#1f4057;}.cls-3{clip-path:url(#clip-path);}.cls-4{fill:#39a3d9;}</style><clipPath id="clip-path"><rect class="cls-1" width="61.71" height="16.81"/></clipPath></defs><title>Монтажная область 1</title><rect class="cls-2" x="23.14" width="3.74" height="9.15"/><polygon class="cls-2" points="12.75 0 12.75 9.12 22.08 9.12 22.08 6.66 16.06 6.66 16.09 5.85 21.18 5.82 21.18 3.43 16.09 3.43 16.06 2.56 22.14 2.56 22.14 0 12.75 0"/><polygon class="cls-2" points="40.23 0 40.23 9.12 49.54 9.12 49.54 6.66 43.52 6.66 43.55 5.85 48.61 5.82 48.61 3.43 43.55 3.43 43.52 2.56 49.6 2.56 49.6 0 40.23 0"/><g class="cls-3"><path class="cls-2" d="M5.06,0h6.15V2.56H7.28c-1.58,0-3.19.19-3.19,2.06s1.61,2,3.26,1.93V4.62h3.82V9.15h-6C2.4,9.05.14,7.27,0,4.59A4.91,4.91,0,0,1,5.06,0"/><path class="cls-2" d="M32.69,0h6.15V2.56H34.9c-1.59,0-3.2.19-3.2,2.06s1.61,2,3.31,1.93V4.62h3.77l0,4.53H32.76c-2.71-.1-5-1.89-5.11-4.56.1-2.69,2.3-4.49,5-4.59"/><path class="cls-2" d="M59.24,5.62a2.89,2.89,0,0,0,2.4-2.67c0-1.4-.86-2.95-3.87-2.95H50.84V9.12h3.55V5.82h1.3l2.25,3.3H61.7ZM57.13,3.43H54.39v-.9h2.78c.84,0,1.59-.07,1.63.42s-.76.48-1.66.48"/></g><rect class="cls-4" x="18.12" y="12.41" width="0.69" height="0.48"/><path class="cls-4" d="M23.48,14.36l0-.13-.1-.13L23.28,14l-.1-.1L23,13.87l-.14-.07-.34-.07-.44-.06H21l-.45.06-.38.1-.14.06-.14.1-.1.1-.1.1-.07.13-.07.16-.07.32,0,.45,0,.39.07.32,0,.16.07.13.07.1.1.1.14.1.14.06.17.07.21,0,.48.1h1.39l.34-.07.31-.06.24-.13.1-.07.1-.07.07-.1,0-.13,0-.1,0-.16v-.1H22.9V16l0,.13,0,.1-.1.1-.14.07-.17,0-.21,0h-1l-.36,0-.24-.07-.17-.07-.14-.16,0-.19,0-.26v-.32h3.41V15l0-.39Zm-2,.61H20.21l0-.23,0-.23.07-.16.1-.1.14-.1.24-.07.36,0h1.06l.21,0,.17.1.1.1.07.19,0,.19,0,.29Z"/><path class="cls-4" d="M3,12.41h-.6L0,16.77H.79l.51-.93H4.71l.51.93H6l-2.5-4.37Zm0,3H1.54L3,12.83l1.44,2.63Z"/><rect class="cls-4" x="18.12" y="13.71" width="0.69" height="3.06"/><polygon class="cls-4" points="10.11 14.03 9.91 13.9 9.67 13.81 9.36 13.71 8.98 13.68 8.55 13.68 8.14 13.68 7.73 13.74 7.53 13.81 7.35 13.87 7.22 13.97 7.11 14.1 7.08 14.1 7.08 13.71 6.39 13.71 6.39 16.77 7.08 16.77 7.08 15 7.11 14.74 7.15 14.55 7.25 14.39 7.35 14.26 7.56 14.16 7.8 14.1 8.11 14.07 8.48 14.07 9.02 14.07 9.22 14.1 9.36 14.16 9.5 14.26 9.56 14.36 9.63 14.52 9.63 14.71 9.63 16.77 10.32 16.77 10.32 14.74 10.32 14.45 10.25 14.23 10.11 14.03"/><polygon class="cls-4" points="17.64 14.1 17.54 13.97 17.4 13.84 17.23 13.74 16.99 13.68 16.71 13.65 16.4 13.65 15.99 13.65 15.62 13.71 15.44 13.78 15.31 13.84 15.17 13.97 15.07 14.07 15.1 13.68 14.36 13.68 14.36 16.71 15.1 16.71 15.1 14.81 15.14 14.61 15.17 14.45 15.24 14.32 15.34 14.2 15.51 14.1 15.72 14.07 15.96 14 16.23 14 16.61 14.03 16.75 14.07 16.85 14.1 16.95 14.2 16.99 14.26 17.02 14.36 17.05 14.48 17.05 14.71 17.71 14.71 17.71 14.48 17.67 14.29 17.64 14.1"/><polygon class="cls-4" points="13.23 15.9 13.2 16.1 13.2 16.19 13.13 16.29 13.06 16.32 12.92 16.39 12.79 16.42 12.55 16.42 12.24 16.42 12.14 16.39 12.03 16.35 11.96 16.29 11.96 16.23 11.93 16.13 11.93 16.03 11.93 14.1 13.71 14.1 13.71 13.71 11.93 13.71 11.93 12.99 11.21 12.99 11.21 13.71 10.56 13.71 10.56 14.1 11.21 14.1 11.21 15.87 11.21 16.13 11.24 16.32 11.35 16.48 11.45 16.61 11.66 16.71 11.9 16.77 12.17 16.8 12.55 16.8 12.89 16.8 13.16 16.74 13.4 16.68 13.58 16.58 13.71 16.45 13.81 16.29 13.88 16.13 13.88 15.9 13.88 15.68 13.23 15.68 13.23 15.9"/><polygon class="cls-4" points="50.74 14.23 50.6 14.03 50.43 13.9 50.15 13.81 49.84 13.71 49.5 13.68 49.09 13.68 48.64 13.68 48.23 13.74 48.03 13.81 47.89 13.87 47.75 13.97 47.62 14.1 47.62 12.41 46.93 12.41 46.93 16.77 47.62 16.77 47.62 15 47.62 14.74 47.65 14.55 47.75 14.39 47.89 14.26 48.06 14.16 48.3 14.1 48.61 14.07 49.02 14.07 49.54 14.07 49.71 14.1 49.88 14.16 49.98 14.26 50.08 14.36 50.12 14.52 50.15 14.71 50.15 16.77 50.84 16.77 50.84 14.74 50.8 14.45 50.74 14.23"/><rect class="cls-4" x="56.17" y="13.71" width="0.72" height="3.06"/><path class="cls-4" d="M28.26,14.32l-.07-.1-.1-.13L28,14l-.1-.07-.17-.1-.17,0-.17-.07-.26,0-.55,0h-.41l-.44.06-.21.07-.17.07-.17.1-.07.13h0V12.41h-.72v4.37h.72v-.39h0l.1.13.14.06.17.1.17,0,.41.1h.48l.55,0,.46-.06.17-.07.14-.07.14-.1.07-.07.1-.13.07-.13.07-.26.07-.29V14.9l-.07-.29Zm-.58.93v.26l0,.26,0,.23-.1.16-.14.13-.26.07-.31.06H26l-.27,0-.24-.1-.17-.1-.1-.16-.1-.19,0-.26v-.87l.07-.23.1-.16.07-.07.07-.06.24-.1.31,0h.82l.27,0,.26.07.17.13.1.13.07.23,0,.26Z"/><rect class="cls-4" x="56.17" y="12.41" width="0.72" height="0.48"/><polygon class="cls-4" points="59.24 15.13 61.23 13.71 60.37 13.71 58.69 14.9 58.41 14.9 58.41 12.41 57.71 12.41 57.71 16.77 58.41 16.77 58.41 15.29 58.69 15.29 60.68 16.77 61.6 16.77 59.24 15.13"/><polygon class="cls-4" points="55.21 14.03 55 13.9 54.76 13.81 54.46 13.71 54.08 13.68 53.67 13.68 53.26 13.68 52.81 13.74 52.64 13.81 52.47 13.87 52.33 13.97 52.23 14.1 52.19 14.1 52.19 13.71 51.51 13.71 51.51 16.77 52.19 16.77 52.19 15 52.19 14.74 52.26 14.55 52.33 14.39 52.47 14.26 52.64 14.16 52.91 14.1 53.22 14.07 53.6 14.07 54.11 14.07 54.28 14.1 54.46 14.16 54.59 14.26 54.66 14.36 54.7 14.52 54.73 14.71 54.73 16.77 55.41 16.77 55.41 14.74 55.41 14.45 55.35 14.23 55.21 14.03"/><polygon class="cls-4" points="33.03 15.58 32.99 15.45 32.89 15.36 32.79 15.26 32.69 15.19 32.38 15.1 32.04 15.03 31.66 15 30.8 15 30.32 14.97 30.15 14.97 30.01 14.94 29.94 14.87 29.88 14.78 29.84 14.65 29.84 14.48 29.84 14.36 29.91 14.23 30.01 14.2 30.15 14.13 30.32 14.1 30.56 14.1 31.14 14.1 31.63 14.1 31.93 14.13 32.07 14.16 32.17 14.23 32.21 14.29 32.24 14.39 32.24 14.52 32.96 14.52 32.96 14.39 32.93 14.26 32.89 14.16 32.86 14.07 32.79 14 32.62 13.87 32.34 13.78 32.07 13.71 31.76 13.68 31.14 13.68 30.29 13.68 29.94 13.74 29.64 13.81 29.43 13.9 29.33 13.97 29.26 14.07 29.19 14.16 29.16 14.29 29.12 14.42 29.12 14.58 29.12 14.74 29.16 14.87 29.19 14.97 29.29 15.06 29.36 15.13 29.46 15.23 29.74 15.29 30.05 15.36 30.39 15.39 31.14 15.42 31.69 15.42 31.9 15.45 32.07 15.48 32.21 15.52 32.31 15.61 32.34 15.74 32.34 15.9 32.34 16.1 32.24 16.23 32.1 16.29 31.93 16.35 31.73 16.39 31.52 16.39 31.14 16.39 30.49 16.39 30.25 16.35 30.08 16.32 29.94 16.29 29.84 16.19 29.81 16.13 29.81 16.03 29.81 15.81 29.05 15.81 29.05 16.06 29.05 16.19 29.09 16.29 29.16 16.42 29.22 16.48 29.33 16.55 29.43 16.61 29.7 16.71 30.01 16.77 30.39 16.8 31.14 16.8 31.9 16.8 32.21 16.74 32.48 16.68 32.76 16.55 32.86 16.48 32.93 16.42 32.99 16.29 33.03 16.19 33.06 16.06 33.12 15.9 33.06 15.74 33.03 15.58"/><polygon class="cls-4" points="35.99 15.9 35.96 16.1 35.96 16.19 35.93 16.29 35.82 16.32 35.72 16.39 35.55 16.42 35.31 16.42 35 16.42 34.9 16.39 34.83 16.35 34.76 16.29 34.73 16.23 34.69 16.13 34.69 16.03 34.69 14.1 36.48 14.1 36.48 13.71 34.69 13.71 34.69 12.99 33.97 12.99 33.97 13.71 33.32 13.71 33.32 14.1 33.97 14.1 33.97 15.87 33.97 16.13 34.01 16.32 34.11 16.48 34.25 16.61 34.42 16.71 34.66 16.77 34.97 16.8 35.31 16.8 35.65 16.8 35.96 16.74 36.17 16.68 36.37 16.58 36.51 16.45 36.58 16.29 36.65 16.13 36.65 15.9 36.65 15.68 35.99 15.68 35.99 15.9"/><polygon class="cls-4" points="45.52 15.81 45.47 16 45.44 16.13 45.39 16.26 45.23 16.32 45.06 16.39 44.86 16.42 44.31 16.42 43.86 16.42 43.49 16.39 43.24 16.29 43.07 16.19 42.97 16.03 42.9 15.84 42.9 15.61 42.9 15.29 42.9 14.97 42.9 14.71 42.94 14.48 43.04 14.32 43.11 14.23 43.18 14.2 43.42 14.1 43.73 14.07 44.14 14.07 44.69 14.07 44.89 14.1 45.1 14.13 45.23 14.2 45.34 14.29 45.41 14.45 45.41 14.61 45.41 14.71 46.14 14.71 46.14 14.61 46.11 14.48 46.07 14.36 46.04 14.23 45.97 14.1 45.9 14.03 45.8 13.97 45.54 13.84 45.23 13.74 44.89 13.71 44.51 13.68 44.1 13.68 43.55 13.71 43.07 13.78 42.9 13.84 42.73 13.9 42.59 13.97 42.49 14.07 42.39 14.16 42.32 14.26 42.22 14.52 42.18 14.84 42.15 15.16 42.18 15.58 42.18 15.9 42.29 16.19 42.35 16.29 42.46 16.42 42.56 16.52 42.7 16.58 42.87 16.68 43.07 16.71 43.31 16.77 43.59 16.8 44.21 16.8 44.62 16.8 44.99 16.77 45.34 16.71 45.66 16.64 45.87 16.52 45.97 16.42 46.07 16.32 46.11 16.23 46.18 16.1 46.21 15.97 46.21 15.81 46.21 15.64 45.52 15.64 45.52 15.81"/><path class="cls-4" d="M41.12,14.23l-.07-.13-.1-.06-.1-.1-.1-.06-.17-.07-.31-.07-.45-.06H38.7l-.48.06-.34.1-.14.06-.14.1-.14.1-.07.1-.07.13-.07.16-.07.32,0,.45,0,.39,0,.32.07.16,0,.13.1.1.1.1.1.1.17.06.17.07.17,0,.51.1h1.39l.34-.07.27-.06.28-.13.1-.07.07-.07.1-.1,0-.13,0-.1v-.26h-.72v.26l0,.1-.1.1-.14.07-.17,0-.24,0h-1l-.34,0-.24-.07-.17-.07L38,16.1l-.07-.19,0-.26v-.32h3.41v-.68l-.1-.29Zm-.58.74H37.88l0-.23,0-.23.07-.16.14-.1.14-.1.24-.07.34,0H40l.21,0,.17.1.1.1.07.19,0,.19Z"/></svg>