<?xml version="1.0" encoding="utf-8"?>
<!-- Generator: Adobe Illustrator 21.0.0, SVG Export Plug-In . SVG Version: 6.00 Build 0)  -->
<svg version="1.1" id="Слой_1" xmlns="http://www.w3.org/2000/svg" xmlns:xlink="http://www.w3.org/1999/xlink" x="0px" y="0px"
	 viewBox="0 0 309.3 99.3" style="enable-background:new 0 0 309.3 99.3;" xml:space="preserve">
<style type="text/css">
	.st0{fill:#FFFFFF;}
	.st1{fill-rule:evenodd;clip-rule:evenodd;fill:#FF5000;}
	.st2{fill-rule:evenodd;clip-rule:evenodd;fill:#FFFFFF;}
</style>
<g>
	<g>
		<path class="st0" d="M202.1,9.2h4.7v75.7h-4.7V9.2z"/>
		<path class="st0" d="M222.6,84.9V33.6h4.7v51.2H222.6z"/>
		<path class="st0" d="M243.6,84.9V37.7h-6.9v-4.1h6.9v-2.9c0-3.2,0.3-6.2,0.8-9c0.5-2.8,1.4-5.2,2.6-7.2c1.2-2,2.8-3.6,4.8-4.8
			c2-1.2,4.5-1.8,7.4-1.8c1.5,0,2.9,0.2,4.1,0.5c1.2,0.4,2.2,0.8,2.9,1.3l-1.5,4c-0.7-0.4-1.5-0.7-2.4-1c-0.9-0.3-2.1-0.4-3.5-0.4
			c-2.3,0-4.1,0.5-5.4,1.5c-1.4,1-2.4,2.3-3.2,4c-0.8,1.6-1.3,3.6-1.5,5.8c-0.3,2.2-0.4,4.6-0.4,7v3h12.6v4.1h-12.6v47.2H243.6z"/>
		<path class="st0" d="M269.7,58.6c0,4.2,0.5,7.7,1.4,10.6c1,2.9,2.3,5.2,3.9,7.1c1.6,1.9,3.5,3.2,5.7,4c2.2,0.8,4.4,1.2,6.8,1.2
			c3.2,0,5.8-0.3,7.8-1c2-0.6,3.7-1.3,5-1.9l1.2,3.9c-0.9,0.6-2.6,1.3-5,2.1c-2.4,0.8-5.6,1.2-9.6,1.2c-3.4,0-6.4-0.6-9.1-1.9
			c-2.7-1.3-5-3.1-6.9-5.3c-1.9-2.3-3.3-5-4.3-8.2c-1-3.2-1.5-6.6-1.5-10.4c0-4.3,0.5-8.1,1.6-11.5c1.1-3.4,2.5-6.3,4.4-8.7
			c1.9-2.4,4.1-4.3,6.6-5.6c2.6-1.3,5.3-1.9,8.3-1.9c3.9,0,7,0.9,9.3,2.6c2.4,1.7,4.2,3.8,5.5,6.1c1.3,2.4,2.2,4.9,2.7,7.5
			c0.5,2.6,0.7,4.9,0.7,6.8c0,0.7,0,1.3,0,1.7s0,0.9-0.1,1.5L269.7,58.6z M299.4,54.6c0-1.8-0.2-3.8-0.6-5.9c-0.4-2.1-1.1-4-2.2-5.8
			c-1.1-1.8-2.5-3.3-4.3-4.4c-1.8-1.2-4.1-1.8-6.9-1.8c-2.5,0-4.7,0.6-6.6,1.7c-1.9,1.1-3.4,2.6-4.7,4.3c-1.3,1.7-2.2,3.7-2.9,5.8
			c-0.7,2.1-1.1,4.1-1.3,6.1H299.4z"/>
	</g>
	<g>
		<g>
			<path class="st1" d="M28.7,17.9c3.4,0.4,6.6,1,9.4,2.1c4.7,1.8,8.5,4.5,11.4,8h10.6c-1.6-2.7-3.5-5.2-5.8-7.4
				c-4.1-3.9-9.2-6.7-15.3-8.4c-6.2-1.8-13.3-2.5-21.5-2.3h0H7.1v49.5h9.7V18.4v-0.8l0.8,0C21.6,17.5,25.3,17.6,28.7,17.9z"/>
			<path class="st2" d="M62.8,33.9h-9.6c1.7,3.6,2.7,7.7,2.9,11.7c0.2,4.4-0.5,8.9-2,13c-2.5,6.7-7.2,12.6-14.1,16.2
				c-3,1.5-6.6,2.3-10.7,2.7c-3.8,0.4-8,0.3-12.5,0.2v7.9c8.7,0.4,16.3-0.3,22.7-2.3c6.6-2,12-5.3,16.2-10.1
				c6.4-7.3,9.6-17.3,9.3-27.1C65,42,64.2,37.8,62.8,33.9z"/>
		</g>
	</g>
	<g>
		<path class="st2" d="M101.6,85.6h1.4v-8c-5.1,0.1-10.3,0-14.7-1.5c-4.8-1.6-8.6-4.9-10.4-11.6l-0.3-1h1.1H103v-8.3H78.8h-1.1
			l0.3-1.1c0.7-2.5,1.9-4.8,3.6-6.8c1.6-1.8,3.6-3.3,5.9-4.3l0.7-0.3l0,0c4.4-1.6,9.7-1.5,14.2-1.4l0.6,0v-7.8h-1.6
			c-4.6,0-9.3,0-13.8,1.1l0,0c-5.5,1.3-10.1,4.5-13.4,8.8c-3.2,4.1-5.1,9.2-5.3,14.6l0,0l0,0.8v0l0,0v0c-0.1,4.3,0.7,8.3,2.3,11.8
			c1.6,3.5,4.1,6.6,7.4,9.3C85.7,85.6,93.1,85.6,101.6,85.6L101.6,85.6z"/>
		<path class="st2" d="M142.8,85.6v-7v-1c-5.1,0.1-10.3,0-14.8-1.5c-4.8-1.6-8.6-5-10.4-11.8c-1.1-4.2-0.7-8.8,1.1-12.7
			c1.7-3.7,4.6-6.9,8.5-8.5l1.1-0.5v0.1c4.3-1.5,9.4-1.4,13.8-1.3l0.6,0v-7.8h-1.6c-4.6,0-9.3,0-13.8,1.1l0,0
			c-5.5,1.3-10.1,4.5-13.4,8.8c-3.2,4.1-5.1,9.2-5.3,14.6l0,0l0,0.8v0l0,0v0c-0.1,4.3,0.7,8.3,2.3,11.8c1.6,3.5,4.1,6.6,7.4,9.3
			c7.1,5.6,14.4,5.6,22.9,5.5H142.8z"/>
		<path class="st2" d="M168.9,40.1c-10.9,0-19.8,8.7-19.8,19.3s8.9,19.3,19.8,19.3c10.9,0,19.8-8.7,19.8-19.3S179.8,40.1,168.9,40.1
			L168.9,40.1z M168.9,33.2c-14.8,0-26.8,11.7-26.8,26.2s12,26.1,26.8,26.1c14.8,0,26.7-11.7,26.7-26.1S183.6,33.2,168.9,33.2
			L168.9,33.2z"/>
	</g>
	<circle class="st1" cx="225.2" cy="19.5" r="6.7"/>
</g>
</svg>
