<svg id="Слой_1" data-name="Слой 1" xmlns="http://www.w3.org/2000/svg" viewBox="0 0 309.3 99.3"><defs><style>.cls-1{fill:#505050;}.cls-2{fill:#ff5000;}</style></defs><title>foot-decolife-gr</title><path class="cls-1" d="M202.1,9.2h4.7V84.9h-4.7Z"/><path class="cls-1" d="M222.6,84.9V33.6h4.7V84.8h-4.7Z"/><path class="cls-1" d="M243.6,84.9V37.7h-6.9V33.6h6.9V30.7a51.07,51.07,0,0,1,.8-9,21.12,21.12,0,0,1,2.6-7.2,13.79,13.79,0,0,1,4.8-4.8,14.24,14.24,0,0,1,7.4-1.8,17,17,0,0,1,4.1.5,11.33,11.33,0,0,1,2.9,1.3l-1.5,4a13.32,13.32,0,0,0-2.4-1,11.61,11.61,0,0,0-3.5-.4,8.67,8.67,0,0,0-5.4,1.5,9.82,9.82,0,0,0-3.2,4,16.45,16.45,0,0,0-1.5,5.8,52.74,52.74,0,0,0-.4,7v3h12.6v4.1H248.3V84.9Z"/><path class="cls-1" d="M269.7,58.6a35.83,35.83,0,0,0,1.4,10.6,21.84,21.84,0,0,0,3.9,7.1,13.21,13.21,0,0,0,5.7,4,19.47,19.47,0,0,0,6.8,1.2,24.23,24.23,0,0,0,7.8-1,38.08,38.08,0,0,0,5-1.9l1.2,3.9a23.8,23.8,0,0,1-5,2.1,31.22,31.22,0,0,1-9.6,1.2,20.59,20.59,0,0,1-9.1-1.9,21.23,21.23,0,0,1-6.9-5.3,23.73,23.73,0,0,1-4.3-8.2A34.39,34.39,0,0,1,265.1,60a37.17,37.17,0,0,1,1.6-11.5,27.37,27.37,0,0,1,4.4-8.7,20.57,20.57,0,0,1,6.6-5.6,18.07,18.07,0,0,1,8.3-1.9c3.9,0,7,.9,9.3,2.6a18.67,18.67,0,0,1,5.5,6.1,26,26,0,0,1,2.7,7.5,36.43,36.43,0,0,1,.7,6.8V57a8.64,8.64,0,0,1-.1,1.5Zm29.7-4a31.9,31.9,0,0,0-.6-5.9,17,17,0,0,0-2.2-5.8,12.93,12.93,0,0,0-4.3-4.4,12.2,12.2,0,0,0-6.9-1.8,13,13,0,0,0-6.6,1.7,16.12,16.12,0,0,0-4.7,4.3,19.72,19.72,0,0,0-2.9,5.8,27.77,27.77,0,0,0-1.3,6.1Z"/><path class="cls-2" d="M28.7,17.9A38.1,38.1,0,0,1,38.1,20a27.09,27.09,0,0,1,11.4,8H60.1a34.45,34.45,0,0,0-5.8-7.4A35.64,35.64,0,0,0,39,12.2c-6.2-1.8-13.3-2.5-21.5-2.3H7.1V59.4h9.7V17.6h.8A98.7,98.7,0,0,1,28.7,17.9Z"/><path class="cls-1" d="M62.8,33.9H53.2a31.49,31.49,0,0,1,2.9,11.7,33.74,33.74,0,0,1-2,13A29.71,29.71,0,0,1,40,74.8a30.55,30.55,0,0,1-10.7,2.7,101.84,101.84,0,0,1-12.5.2v7.9c8.7.4,16.3-.3,22.7-2.3A34,34,0,0,0,55.7,73.2,39.62,39.62,0,0,0,65,46.1,36.51,36.51,0,0,0,62.8,33.9Z"/><path class="cls-1" d="M101.6,85.6H103v-8c-5.1.1-10.3,0-14.7-1.5-4.8-1.6-8.6-4.9-10.4-11.6l-.3-1H103V55.2H77.7l.3-1.1a17.86,17.86,0,0,1,3.6-6.8A17,17,0,0,1,87.5,43l.7-.3h0c4.4-1.6,9.7-1.5,14.2-1.4h.6V33.5h-1.6c-4.6,0-9.3,0-13.8,1.1h0a23.75,23.75,0,0,0-13.4,8.8A25.25,25.25,0,0,0,68.9,58h0v.8h0a26.77,26.77,0,0,0,2.3,11.8,26.08,26.08,0,0,0,7.4,9.3c7.1,5.7,14.5,5.7,23,5.7Z"/><path class="cls-1" d="M142.8,85.6v-8c-5.1.1-10.3,0-14.8-1.5-4.8-1.6-8.6-5-10.4-11.8a19.13,19.13,0,0,1,1.1-12.7,16.41,16.41,0,0,1,8.5-8.5l1.1-.5v.1c4.3-1.5,9.4-1.4,13.8-1.3h.6V33.6h-1.6c-4.6,0-9.3,0-13.8,1.1h0a23.75,23.75,0,0,0-13.4,8.8,25.25,25.25,0,0,0-5.3,14.6h0v.8h0a26.77,26.77,0,0,0,2.3,11.8,26.08,26.08,0,0,0,7.4,9.3c7.1,5.6,14.4,5.6,22.9,5.5h1.6Z"/><path class="cls-1" d="M168.9,33.2c-14.8,0-26.8,11.7-26.8,26.2s12,26.1,26.8,26.1,26.7-11.7,26.7-26.1S183.6,33.2,168.9,33.2Zm0,45.5c-10.9,0-19.8-8.7-19.8-19.3s8.9-19.3,19.8-19.3,19.8,8.7,19.8,19.3S179.8,78.7,168.9,78.7Z"/><circle class="cls-2" cx="225.2" cy="19.5" r="6.7"/></svg>