<svg id="Режим_изоляции" data-name="Режим изоляции" xmlns="http://www.w3.org/2000/svg" viewBox="0 0 1502.31 447.27"><defs><style>.cls-1,.cls-11,.cls-2,.cls-4{fill:#6f7174;}.cls-1,.cls-3{fill-rule:evenodd;}.cls-3{fill:#d93041;}.cls-4{font-size:56.77px;}.cls-11,.cls-4{font-family:MyriadSetPro-Bold, Myriad Set Pro;font-weight:700;}.cls-5{letter-spacing:-0.01em;}.cls-6{letter-spacing:0em;}.cls-7{letter-spacing:0.01em;}.cls-8{letter-spacing:-0.01em;}.cls-9{letter-spacing:0em;}.cls-10{letter-spacing:0em;}.cls-11{font-size:93.05px;}.cls-12{letter-spacing:0em;}.cls-13{letter-spacing:0.02em;}.cls-14{letter-spacing:0em;}.cls-15{letter-spacing:0em;}.cls-16{letter-spacing:-0.01em;}.cls-17{letter-spacing:0em;}.cls-18{letter-spacing:0.02em;}</style></defs><title>Gaviota</title><path class="cls-1" d="M2473.89,266.21c-52.87,0-73.53-28.83-29.25-46.45,15.35-6.11,56.05-14,73.68-15.18,14.1-1,27.05-2.86,41.56-2.86v44.43c-12,2.8-38.44,20.06-86,20.06ZM2399.37,105.7v44.43c5.18-1.21,28.72-11.33,40.13-14.33,28.93-7.62,65.36-10.84,94.79-1.64,21.92,6.86,25.59,14.09,25.59,30.3-15.33,0-74.64,7-90.18,10.14-12.93,2.59-40.11,9.53-51.69,15.67-2.31,1.23-2.27,1.59-5.27,3.33l-22.86,20.13c-7.8,11.44-11,32.61-6.27,42.46-23.61,5.5-31,10-60.19,10-22.61,0-51.31-3.7-62.75-14.64-9.81-9.39-7.19-14.06-7.43-31.27-.1-7.27-1.54-8.71-1.5-17.13V155.86h63.06V115.73h-61.63c0-25.63,7.09-20.06-38.69-20.06V237.55c0,22.8,18.5,42.23,33.9,50.66,42.74,23.38,104,14.78,148.7,4.4,24.38-5.66,9.22,1.34,40.08,7.46,28.53,5.66,66.57,2.26,95.21-5.45l27.5-8.33c0,16.68-5.49,12.9,38.69,12.9V158.72c0-20.59-11.72-35.8-26.18-46.91a67.08,67.08,0,0,0-6.79-4.67C2506,72.81,2413,105.39,2399.37,105.7Z" transform="translate(-1098.07 18.58)"/><path class="cls-1" d="M1562.41,201.72v43c-13.8,7.3-22,10.5-39.56,14.9-25,6.3-50,9.23-76.23,3.43-24.41-5.38-35.62-25.77-8.89-39.83a108.78,108.78,0,0,1,12.34-4.86c25.72-8.76,82.83-16.64,112.34-16.64Zm-161.95-51.59,20.06-7.17c34.49-14.28,82.72-20.22,119.51-7.73,14.93,5.07,22.37,12.35,22.37,29.22-7.44,0-9.26.74-14.43,1.34s-9.6-.34-15.1.66c-11.94,2.18-38,3.87-55.89,7.17-37.46,6.9-93.72,21.11-93.72,68.22,0,11,2.37,17.61,6.21,25.32,3.91,7.86,11.48,16.62,19.1,21,12.65,7.34,28.47,13.42,43.45,13.88,36.54,1.13,48.83.64,84.89-8.35,8.24-2.05,18-6.84,25.5-7.46v12.9h38.69V165.89c0-41.13-29.48-62.26-63.36-69.93-40.85-9.24-96.51-2.17-133.11,9.6-4.48,1.44-3.89.42-4.29,5.74C1399.51,122.45,1400.46,138.42,1400.46,150.12Z" transform="translate(-1098.07 18.58)"/><path class="cls-1" d="M1311.61,120c-12.7-3.39-22.88-22.93-97.45-22.93-4.94,0-5.55,1.06-10,1.43v35.83c30.5,0,60.26-2.31,85.44,16.31,24,17.75,27.54,59.75,15.39,84.52-4.33,8.83-9.29,13.85-16.51,19.31-23.72,17.95-55.37,16-84.32,16v35.83c8.18,0,9.91,1.43,18.63,1.43a193.06,193.06,0,0,0,49.59-6.31c16.43-4.06,26.29-9.37,39.27-18.06,0,33.16-9.1,41.83-44.43,47.3-38.39,5.94-85.1,4-122.39-6.6-4.37-1.24-7.2-1.62-11.44-2.89-6.45-1.93-15.95-5.74-22.39-6.28V356.5c55.85,13,239.34,44.13,239.34-63.06V95.66h-38.69Z" transform="translate(-1098.07 18.58)"/><path class="cls-1" d="M2059.71,128.63c25,0,45.86,3.37,62.5,13.46,32.44,19.65,39.1,84,.56,109.8-33.7,22.57-144,26.47-147.62-44.43-.31-6-1.08-4.75-1.4-8.75-1.32-16.65,7.85-42.81,23.73-53.47,18.09-12.15,39.1-16.6,62.22-16.6ZM1935,196c0,54.14,30,86.53,75.06,99.79,19.8,5.82,43.09,8.77,64.05,6.36,17.23-2,12.5.67,37.46-5.53,14.67-3.65,29.09-11.29,39.59-19.17,60-45,48.89-155.7-37.28-178.64-8.52-2.27-14.35-3.26-23.75-4.91-24.48-4.29-55.84-2.54-77.94,4.45C1968.12,112.26,1935,141.82,1935,196Z" transform="translate(-1098.07 18.58)"/><path class="cls-1" d="M1707.16,299.17h38.69L1797,198.37c4.35-8.7,49.08-96,50.64-102.7h-43l-78.82,154.78-76.51-154.5-42.44-.28Z" transform="translate(-1098.07 18.58)"/><rect class="cls-2" x="771.04" y="114.25" width="38.69" height="203.51"/><path class="cls-3" d="M1098.07,201.72c0,35.84,16.57,68.22,43,84.54,6.5,4,21,12.15,30.08,12.91v-38.7c-15.23-8.06-27.76-19.36-31.45-37.34a58.38,58.38,0,0,1-1.51-10c-.46-5.9-1.34-5.47-1.5-10.07-.11-3.15,2.2-17.06,2.81-20.15a43.73,43.73,0,0,1,6.42-16.51c6.61-10.89,14.83-16.55,25.24-22.06V105.7c-16,1.33-41.62,19.7-51.87,32.69C1107.45,153.41,1098.07,175.44,1098.07,201.72Z" transform="translate(-1098.07 18.58)"/><text class="cls-4" transform="translate(857.83 47.66)">a b<tspan class="cls-5" x="74.71" y="0">r</tspan><tspan class="cls-6" x="94.36" y="0">and of </tspan><tspan class="cls-7" x="264.05" y="0">G</tspan><tspan class="cls-8" x="301.74" y="0">a</tspan><tspan class="cls-9" x="329.79" y="0">viota </tspan><tspan class="cls-10" x="466.5" y="0">S</tspan><tspan x="495.68" y="0">imbac</tspan></text><text class="cls-11" transform="translate(299.4 414.71)">sm<tspan class="cls-12" x="116.59" y="0">a</tspan><tspan class="cls-13" x="163.3" y="0">r</tspan><tspan x="198.48" y="0">t sol</tspan><tspan class="cls-14" x="366.99" y="0">a</tspan><tspan class="cls-15" x="413.7" y="0">r p</tspan><tspan class="cls-16" x="522.29" y="0">r</tspan><tspan x="554.86" y="0">o</tspan><tspan class="cls-17" x="606.69" y="0">t</tspan><tspan x="638.88" y="0">e</tspan><tspan class="cls-18" x="686.43" y="0">c</tspan><tspan x="728.95" y="0">tion</tspan></text></svg>