<?xml version="1.0" encoding="utf-8"?>
<!-- Generator: Adobe Illustrator 21.0.0, SVG Export Plug-In . SVG Version: 6.00 Build 0)  -->
<svg version="1.1" id="Layer_1" xmlns="http://www.w3.org/2000/svg" xmlns:xlink="http://www.w3.org/1999/xlink" x="0px" y="0px"
	 viewBox="0 0 102.1 30" style="enable-background:new 0 0 102.1 30;" xml:space="preserve">
<style type="text/css">
	.st0{fill:#8F908F;}
</style>
<g>
	<path class="st0" d="M55.5,12.6c1.4-0.3,2.5,0.8,2.7,2c0.2,1.5-0.8,2.6-1.9,2.8c-1.4,0.3-2.6-0.8-2.8-2
		C53.3,14,54.4,12.8,55.5,12.6 M62.5,15.7c0.4-4-2.5-7.2-6-7.5c-3.8-0.3-6.9,2.6-7.2,6.2c-0.4,4,2.5,7.2,6,7.5
		C59.2,22.2,62.2,19.3,62.5,15.7 M65.4,10.7c-0.8,0.2-0.8,0.8-0.8,1.6v6c0,1.3,1.4,1.5,1.9,0.8c0.2-0.3,0.2-0.5,0.2-0.9v-1.2
		c0-1.6-0.2-4,1.2-4.8c0.3-0.1,0.6-0.2,0.9-0.3c0.8,0,1,0.6,1,1.3c0.1,1.6,0,3.2,0,4.8c0,0.4,0,0.7,0.2,1c0.6,0.9,1.9,0.6,2-0.6
		c0.1-1.8-0.5-6.1,1.8-6.6c1.5-0.3,1.3,1.2,1.3,2.2c0,0.7-0.1,4.4,0.1,4.7c0.2,0.5,0.9,1,1.5,0.6c0.6-0.3,0.6-0.9,0.6-1.8l0-4.8
		c0-0.9-0.2-1.3-0.7-1.7c-0.8-0.5-2-0.4-2.9-0.1c-0.3,0.1-0.6,0.2-0.9,0.3c-0.8,0.1-1.2-0.2-1.8-0.4c-0.6-0.2-1.4-0.2-2,0
		c-0.6,0.2-1.1,0.6-1.9,0.4C66.5,11.1,66.1,10.6,65.4,10.7 M85.3,6.3c-2,0.1-3.3,1-3.9,2.4c-0.4,1-0.1,2-1.1,2.1
		c-0.6,0-0.8,0.2-1,0.6c-0.4,0.8,0,1.8,0.9,2c0.4,0.1,0.7,0.3,0.8,0.8c0.1,0.9-0.2,4,0.1,4.7c0.1,0.3,0.5,0.7,0.9,0.7
		c1.2,0.1,1.7-0.3,1.7-1.5v-3.2c0-0.6,0-0.9,0.3-1.2c0.6-0.5,1.9,0.1,2.6-0.5c0.5-0.4,0.7-1.7-0.3-2.1c-0.5-0.2-1.7,0-2.2-0.1
		c-0.3-0.1-0.3-0.2-0.4-0.4c0-0.5,0.1-1,0.4-1.2C84.8,8.5,86,8.6,87,8.6c1.5,0,1.6-2.3-0.1-2.3C86.3,6.3,85.8,6.3,85.3,6.3
		 M43.5,10.4c-1.4,0.1-2.9,0.5-3.4,1.9c-0.4,1,0,1.9,0.7,2.6c0.6,0.6,2.7,1.2,3.6,1.7c0.7,0.4,0.6,1.7-0.8,1.8c-1,0.1-2.1-0.3-3-0.5
		c-0.6-0.1-1,0-1.1,0.6c-0.1,0.6,0.4,0.8,0.8,1c1.8,0.5,4.2,0.9,5.9,0c0.9-0.4,1.4-1,1.5-2c0.2-2.5-2.3-2.8-3.7-3.3
		c-0.7-0.3-2-0.9-1.1-1.8c0.5-0.6,2-0.6,2.9-0.3c0.5,0.1,1,0.4,1.3-0.1c0.3-0.5-0.1-0.9-0.5-1.1C45.8,10.4,44.3,10.3,43.5,10.4
		 M96.8,11.3c0.1-0.6-0.6-0.7-1-0.6c-0.6,0.2-0.7,0.5-0.9,0.9c-0.4,0.8-0.7,1.6-1.1,2.4c-0.2,0.4-0.5,0.9-0.8,1
		c-0.5,0.1-0.8-0.4-1-0.7c-0.2-0.4-0.4-0.8-0.6-1.2c-0.2-0.4-1-2-1.3-2.2c-0.3-0.2-0.9-0.4-1.4-0.2c-0.5,0.3-0.1,0.8,0.1,1.2
		l2.3,4.8c0.4,0.9,1,1.6,0.4,2.7c-0.2,0.4-0.5,0.7-0.8,0.9c-1.2,0.8-2.3,0.1-2.7,0.8c-0.3,0.5,0,1,0.5,1.1c0.4,0.1,1.2,0,1.6-0.1
		c1-0.2,1.8-0.7,2.3-1.2c0.7-0.7,0.9-1.4,1.3-2.2c0.4-0.8,0.7-1.6,1.1-2.5c0.5-1.3,1.1-2.5,1.6-3.7C96.4,12.2,96.7,11.6,96.8,11.3
		 M97.1,18h0.3c0.1,0,0.2,0,0.2-0.1c0,0,0.1-0.1,0.1-0.1c0,0,0-0.1,0-0.1c0,0-0.1-0.1-0.1-0.1c0,0-0.1,0-0.2,0h-0.2V18z M96.9,18.8
		v-1.3h0.4c0.1,0,0.3,0,0.3,0c0.1,0,0.1,0.1,0.2,0.1c0,0.1,0.1,0.1,0.1,0.2c0,0.1,0,0.2-0.1,0.3c-0.1,0.1-0.2,0.1-0.3,0.1
		c0,0,0.1,0,0.1,0.1c0.1,0.1,0.1,0.1,0.2,0.3l0.2,0.3h-0.3l-0.1-0.2c-0.1-0.2-0.2-0.3-0.2-0.3c0,0-0.1,0-0.2,0h-0.1v0.6H96.9z
		 M97.4,16.8c0.2,0,0.4,0.1,0.6,0.2c0.2,0.1,0.4,0.3,0.5,0.5c0.1,0.2,0.2,0.4,0.2,0.6c0,0.2-0.1,0.4-0.2,0.6
		c-0.1,0.2-0.3,0.4-0.5,0.5c-0.2,0.1-0.4,0.2-0.6,0.2c-0.2,0-0.4-0.1-0.6-0.2c-0.2-0.1-0.3-0.3-0.5-0.5c-0.1-0.2-0.2-0.4-0.2-0.6
		c0-0.2,0.1-0.4,0.2-0.6c0.1-0.2,0.3-0.4,0.5-0.5C97,16.9,97.2,16.8,97.4,16.8 M97.4,17.1c-0.2,0-0.3,0-0.5,0.1
		c-0.2,0.1-0.3,0.2-0.4,0.4c-0.1,0.2-0.1,0.3-0.1,0.5c0,0.2,0,0.3,0.1,0.5c0.1,0.2,0.2,0.3,0.4,0.4c0.2,0.1,0.3,0.1,0.5,0.1
		c0.2,0,0.3,0,0.5-0.1c0.1-0.1,0.3-0.2,0.4-0.4c0.1-0.2,0.1-0.3,0.1-0.5c0-0.2,0-0.3-0.1-0.5c-0.1-0.2-0.2-0.3-0.4-0.4
		C97.8,17.2,97.6,17.1,97.4,17.1"/>
</g>
<path class="st0" d="M24,9.9c2.5,0,2.8,0.6,2.8,3.1c0,2.6-0.4,3.1-2.8,3.1c-2.5,0-2.8-0.6-2.8-3.1C21.2,10.5,21.6,9.9,24,9.9"/>
<path class="st0" d="M34.9,24.8c0,0-0.1-0.1-0.3-0.1c-0.1,0-0.2,0-0.3,0.1c0,0-0.1,0.1-0.1,0.3c0,0.2,0,0.2,0.1,0.3
	c0,0,0.1,0.1,0.3,0.1c0.1,0,0.2,0,0.3-0.1c0,0,0.1-0.1,0.1-0.3C35,24.9,34.9,24.8,34.9,24.8 M35,25.4c-0.1,0.1-0.2,0.1-0.4,0.1
	c-0.2,0-0.3,0-0.4-0.1c-0.1-0.1-0.1-0.2-0.1-0.4c0-0.2,0-0.3,0.1-0.4c0.1-0.1,0.2-0.1,0.4-0.1c0.4,0,0.5,0.1,0.5,0.4
	C35.1,25.2,35.1,25.3,35,25.4"/>
<path class="st0" d="M34.8,25.3v-0.1c0-0.1,0-0.1-0.1-0.1c0,0,0.1-0.1,0.1-0.1c0-0.1,0-0.1-0.1-0.1c0,0-0.1,0-0.1,0h-0.2v0.5h0.1
	v-0.2h0.1c0,0,0,0,0.1,0c0,0,0,0,0,0.1v0.2H34.8z M34.7,24.9C34.7,25,34.7,25,34.7,24.9C34.7,25,34.6,25,34.7,24.9L34.5,25v-0.1h0.1
	C34.7,24.9,34.7,24.9,34.7,24.9C34.7,24.9,34.7,24.9,34.7,24.9"/>
<path class="st0" d="M14,25.7c-0.5,0-0.5,0.2-0.5,0.6c0,0.4,0,0.6,0.5,0.6c0.5,0,0.5-0.2,0.5-0.6C14.5,25.9,14.4,25.7,14,25.7
	 M31.9,25.7c-0.5,0-0.5,0.2-0.5,0.6c0,0.4,0,0.6,0.5,0.6c0.5,0,0.5-0.2,0.5-0.6C32.3,25.9,32.3,25.7,31.9,25.7 M23.7,25.7
	c-0.5,0-0.5,0.2-0.5,0.6c0,0.4,0,0.6,0.5,0.6c0.5,0,0.5-0.2,0.5-0.6C24.2,25.9,24.1,25.7,23.7,25.7 M12.2,27.3v-1
	c0-0.4,0-0.5-0.4-0.5c-0.5,0-0.5,0.3-0.5,0.7v0.9h-0.5v-2.7h0.5v0.9c0.1-0.1,0.3-0.2,0.5-0.2c0.8,0,0.8,0.5,0.8,0.9v1H12.2z
	 M14.7,27.1c-0.2,0.2-0.4,0.2-0.7,0.2c-0.3,0-0.6-0.1-0.7-0.2C13,26.9,13,26.7,13,26.3s0-0.6,0.2-0.8c0.2-0.2,0.4-0.2,0.7-0.2
	c0.3,0,0.6,0.1,0.7,0.2c0.2,0.2,0.2,0.4,0.2,0.8S14.9,26.9,14.7,27.1 M17.7,27.3v-1.2c0-0.2,0-0.4-0.3-0.4c-0.5,0-0.4,0.4-0.4,0.7
	v0.9h-0.5v-1.2c0-0.2,0-0.4-0.3-0.4c-0.5,0-0.4,0.4-0.4,0.7v0.9h-0.5v-1.9h0.4v0.2c0.1-0.1,0.3-0.2,0.6-0.2c0.2,0,0.4,0.1,0.5,0.2
	c0.2-0.1,0.3-0.2,0.6-0.2c0.3,0,0.6,0.1,0.7,0.3c0.1,0.1,0.1,0.3,0.1,0.5v1.2H17.7z M20.3,26.7c0,0.5-0.5,0.6-0.9,0.6
	c-0.8,0-0.9-0.4-0.9-1c0-0.6,0.1-1,0.9-1c0.9,0,0.9,0.5,0.9,1.2H19c0,0.3,0.1,0.5,0.5,0.5c0.2,0,0.4,0,0.4-0.2H20.3z M26.3,27.3v-1
	c0-0.4,0-0.5-0.4-0.5c-0.5,0-0.5,0.3-0.5,0.7v0.9H25v-1.9h0.4v0.2c0.1-0.1,0.3-0.2,0.6-0.2c0.8,0,0.8,0.5,0.8,0.9v1H26.3z
	 M19.4,25.7c-0.4,0-0.5,0.2-0.5,0.4h0.9C19.9,25.8,19.9,25.7,19.4,25.7 M21.6,27.3c-0.8,0-0.9-0.5-0.9-1c0-0.5,0.1-1,0.9-1
	c0.4,0,0.9,0.1,0.9,0.6H22c0-0.2-0.2-0.2-0.4-0.2c-0.4,0-0.5,0.2-0.5,0.6c0,0.4,0,0.6,0.5,0.6c0.2,0,0.4,0,0.4-0.2h0.4
	C22.5,27.2,22,27.3,21.6,27.3 M24.4,27.1c-0.2,0.2-0.4,0.2-0.7,0.2c-0.3,0-0.6-0.1-0.7-0.2c-0.2-0.2-0.2-0.4-0.2-0.8s0-0.6,0.2-0.8
	c0.2-0.2,0.4-0.2,0.7-0.2c0.3,0,0.6,0.1,0.7,0.2c0.2,0.2,0.2,0.4,0.2,0.8S24.6,26.9,24.4,27.1 M28.1,27.3c-0.5,0-0.7-0.2-0.7-0.6v-1
	H27v-0.4h0.3v-0.7h0.5v0.7h0.8v0.4h-0.8v1c0,0.2,0.1,0.3,0.3,0.3c0.2,0,0.3-0.1,0.3-0.2h0.4C28.9,27.1,28.5,27.3,28.1,27.3
	 M30.3,25.9c0-0.2-0.1-0.2-0.3-0.2c-0.2,0-0.3,0.1-0.4,0.2c-0.1,0.1,0,0.4,0,0.5v0.8h-0.5v-1.9h0.4v0.2c0.1-0.1,0.3-0.2,0.6-0.2
	c0.4,0,0.7,0.2,0.7,0.6H30.3z M33.7,27.3h-0.5v-2.7h0.5V27.3z M32.6,27.1c-0.2,0.2-0.4,0.2-0.7,0.2c-0.3,0-0.6-0.1-0.7-0.2
	c-0.2-0.2-0.2-0.4-0.2-0.8s0-0.6,0.2-0.8c0.2-0.2,0.4-0.2,0.7-0.2c0.3,0,0.6,0.1,0.7,0.2c0.2,0.2,0.2,0.4,0.2,0.8
	S32.8,26.9,32.6,27.1"/>
<path class="st0" d="M33.5,8.5v2.6h-4.6c-0.3-1.6-1.3-2.6-4.8-2.6c-4.9,0-4.9,1.9-4.9,4.6c0,2.6,0.1,4.6,5,4.6
	c4.7,0,4.9-1.8,4.9-4.6c0-0.5,0-0.9,0-1.3h4.6v4.5c0,3.8-3.3,6.9-7.3,6.9h-8.1c-4,0-7.3-3.1-7.3-6.9v-0.6h4.6v1.1c0,0.6,0,1,1.1,1
	c1.1,0,1.1-0.4,1.1-1V9.6c0-0.6,0-1-1.1-1c-1.1,0-1.1,0.4-1.1,1v5.4h-4.6V8.5c0-3.8,3.3-6.9,7.3-6.9h8.1C30.2,1.6,33.5,4.7,33.5,8.5
	 M17.5,6.6c0-0.6,0-1-1.1-1c-1.1,0-1.1,0.4-1.1,1v0c0,0.6,0,1,1.1,1C17.5,7.7,17.5,7.2,17.5,6.6L17.5,6.6L17.5,6.6z"/>
</svg>
