<?xml version="1.0" encoding="utf-8"?>
<!-- Generator: Adobe Illustrator 21.0.0, SVG Export Plug-In . SVG Version: 6.00 Build 0)  -->
<svg version="1.1" id="_1" xmlns="http://www.w3.org/2000/svg" xmlns:xlink="http://www.w3.org/1999/xlink" x="0px" y="0px"
	 viewBox="0 0 430.5 474.7" style="enable-background:new 0 0 430.5 474.7;" xml:space="preserve">
<style type="text/css">
	.st0{fill:#505050;}
</style>
<title>ISO</title>
<path class="st0" d="M310.4,377.5c3.2,2.1,7.3,3.2,12.5,3.2c5,0,9.1-1.1,12.3-3.2c3.1-1.9,4.9-5.4,4.8-9v-43.5c0-8.7-5.7-13-17-13
	c-11.6,0-17.4,4.4-17.4,13.1v43.5C305.5,372.2,307.3,375.6,310.4,377.5z M320.4,323.2c0-1.3,0.8-2,2.4-2s2.3,0.7,2.3,2v46
	c0,1.3-0.8,2-2.3,2s-2.4-0.7-2.4-2V323.2z"/>
<path class="st0" d="M266.5,377.5c3.2,2.1,7.3,3.2,12.5,3.2c5,0,9.1-1.1,12.3-3.2c3.1-1.9,4.9-5.4,4.8-9v-43.5c0-8.7-5.7-13-17-13
	c-11.6,0-17.4,4.4-17.4,13.1v43.5C261.6,372.2,263.4,375.6,266.5,377.5z M276.6,323.2c0-1.3,0.8-2,2.4-2s2.3,0.7,2.3,2v46
	c0,1.3-0.8,2-2.3,2s-2.4-0.7-2.4-2V323.2z"/>
<path class="st0" d="M143.4,380.7c5,0,9.1-1.1,12.2-3.2c3.1-2,4.8-5.4,4.7-9.1v-43.5c0-8.7-5.6-13-16.8-13c-11.3,0-17,4.4-17,13.1
	v43.5C126.5,376.6,132.1,380.7,143.4,380.7z M140.9,323.2c0-1.3,0.8-2,2.5-2s2.4,0.7,2.4,2v46c0,1.3-0.8,2-2.4,2
	c-1.6,0-2.4-0.7-2.5-2V323.2z"/>
<path class="st0" d="M332.2,226.3c25.9-19.8,38.7-51.5,34.5-98.2l-108.7-0.2V64.5c19.3,0.7,35.4,6.9,47.5,15.9l12,10.6
	c10.2-0.1,29.8-0.4,40-0.3c-0.4-7-17.1-21-22.8-25.6c-8.3-6.7-18.6-12.6-30.1-17.9C283.8,37.7,253.4,30,227,27.6l0.3,229.1
	C268.1,255.5,307.1,245.6,332.2,226.3z M331.8,157.7c-1.1,20-10.6,36.5-22.2,44.9s-33.6,16.8-52.3,15l-0.1-59.5L331.8,157.7z"/>
<path class="st0" d="M60.3,94.3c-9.6,15.5-14.8,33.4-14.9,51.7c0,38.4,19.5,65.1,48.1,85.4c24.6,17.5,75.6,29.8,105.2,26.2
	l-0.3-32.2c-16.7-1.2-29.2-0.1-45.1-3.7c-24.6-5.6-46.2-16.9-60.5-37.7c-7.5-11.3-11.5-24.5-11.4-38.1c0.2-20.9,8.9-38.3,22.6-52
	c25.9-25.7,51.5-30.5,90.6-31.6V30.3c-14.8-1.5-44.9,4.8-57.5,8.8C120.1,44.6,95.3,55.5,83.1,68C73.3,78,71.3,77,60.3,94.3z"/>
<polygon class="st0" points="113.7,133.5 138.8,133 139.2,197.1 159.3,197.2 169.7,196.8 169.7,132.5 195.4,132.3 195.5,103.3 
	113.3,102.8 "/>
<path class="st0" d="M353.6,380.1h14.9v-67.7h-12.9c-0.1,2-0.9,3.9-2.2,5.4c-1.3,1.7-3.3,2.8-5.4,2.8v9.9h5.6V380.1z"/>
<path class="st0" d="M234.9,380.7c11.3,0,17-4.4,17-13.1V324c0.1-3.6-1.6-7-4.7-9c-3.1-2.1-7.2-3.2-12.3-3.2c-5,0-9,1.1-12.2,3.2
	c-3,2-4.8,5.4-4.6,9.1v15.7c-0.1,3.1,1.2,6,3.7,7.9c2.8,2,6.2,3,9.6,2.8c2.9,0,4.9-0.6,5.9-1.7V369c0,1.5-0.8,2.2-2.4,2.2
	s-2.4-0.7-2.4-2.2v-17.2h-14.5v15.9C218.2,376.3,223.8,380.7,234.9,380.7z M235.1,341.7c-1.6,0-2.4-0.7-2.4-2.2v-16.1
	c0-1.5,0.8-2.2,2.4-2.2s2.4,0.7,2.4,2.2v16.1C237.5,340.9,236.6,341.6,235.1,341.7L235.1,341.7z"/>
<path class="st0" d="M102.1,380.7c11.5,0,17.3-4.5,17.3-13.5v-8.6c0-2.9-0.9-5.7-2.5-8c-1.7-2.4-5.6-6.5-11.9-12.4
	c-3.3-3.3-5-6.3-5-8.8l-0.3-4.4c0-2.5,0.9-3.8,2.7-3.8c1.5,0,2.3,0.7,2.3,2v12.4h13.5v-11.7c0-8-5.1-12-15.4-12
	c-11.5,0-17.2,4.4-17.2,13.1v7.6c0,2.5,0.8,4.9,2.3,6.9c1.5,2.1,5.5,6.2,11.8,12.3c3.3,3.3,4.9,6.2,4.9,8.6v8c0,1.5-0.9,2.3-2.7,2.3
	S99,370,99,368.5V353H85.5v15.5C85.5,376.6,91,380.7,102.1,380.7z"/>
<rect x="62.4" y="312.5" class="st0" width="14.9" height="67.6"/>
<path class="st0" d="M78,412h268.7c43-0.1,77.9-35,78-78v-256l0,0c-0.1-43-35-77.9-78-78H78C34.9,0,0,34.9,0,77.9l0,0V334
	C0,377.1,34.9,411.9,78,412L78,412z M346.6,14.2c35.2,0.1,63.7,28.6,63.8,63.8v134.9c-0.1,35.2-28.6,63.7-63.8,63.8H78
	c-35.2-0.1-63.7-28.6-63.8-63.8V77.9C14.3,42.8,42.8,14.3,78,14.2H346.6z M14.2,257.4c2.6,3.7,5.5,7.2,8.7,10.4
	c14.6,14.6,34.4,22.9,55.1,22.9h268.7c20.7,0,40.5-8.2,55.1-22.9c3.2-3.2,6.1-6.7,8.7-10.4V334c-0.1,35.2-28.6,63.7-63.8,63.8H78
	c-35.2-0.1-63.7-28.6-63.8-63.8V257.4z"/>
<rect x="118.6" y="439.1" class="st0" width="5.6" height="35"/>
<path class="st0" d="M281.5,439.8c-4.2,0-7.4,2-9.5,5.9c-1.8,3.6-2.6,7.6-2.5,11.6c-0.1,3.9,0.7,7.8,2.3,11.4c2,4,5,6,9.1,6
	c4.1,0.2,7.9-2.2,9.6-5.9c1.6-3,2.3-7,2.3-11.8c0.1-3.9-0.6-7.8-2.2-11.4C288.8,441.7,285.7,439.8,281.5,439.8z M281.3,470.3
	c-2.4,0-4.1-1.7-5.1-5c-0.7-2.6-1.1-5.2-1-7.9c0-2.7,0.3-5.4,1-8c1-3.5,2.7-5.3,5.1-5.3c4,0,6,4.3,6,13
	C287.3,465.9,285.3,470.3,281.3,470.3L281.3,470.3z"/>
<polygon class="st0" points="296.3,444.3 297.4,448.6 303.4,445.5 303.5,445.5 303.5,474.1 308.9,474.1 308.9,440.3 304.2,440.3 "/>
<path class="st0" d="M344.6,469.3l2.8-2.5c2.8-2.5,5.4-5.3,7.6-8.4c1.9-2.5,2.9-5.5,3-8.6c0.1-2.6-0.8-5.1-2.6-7
	c-1.9-2-4.6-3.1-8.1-3.1c-3.6-0.1-7.1,1.1-9.8,3.4l1.7,4c2-1.7,4.5-2.7,7.1-2.8c4.1,0,6.2,2,6.1,6c0,2.2-1,4.6-3,7.2
	c-2.7,3.3-5.7,6.5-8.8,9.4l-3.8,3.7v3.4h22v-4.7h-14.1V469.3z"/>
<rect x="319.9" y="458.2" class="st0" width="12.9" height="4"/>
<path class="st0" d="M426,454.4c-2.3-1.4-5-2.1-7.7-2c-0.8,0-1.6,0.1-2.4,0.2l1.1-7.5h12.7v-4.7h-16.7l-2.2,16.6
	c1.5-0.2,3-0.3,4.5-0.3c6.3,0,9.5,2.3,9.5,6.9c0.1,1.9-0.7,3.7-2.2,4.9c-1.5,1.2-3.4,1.9-5.3,1.8c-2.5,0-5-0.6-7.2-1.8l-1.3,4.3
	c2.6,1.4,5.6,2.1,8.6,2c3.4,0.1,6.8-1,9.4-3.3c2.4-2.1,3.7-5.1,3.6-8.3C430.5,459.2,429,456.3,426,454.4z"/>
<path class="st0" d="M375.1,439.8c-4.2,0-7.4,2-9.5,5.9c-1.8,3.6-2.6,7.6-2.5,11.6c-0.1,3.9,0.7,7.8,2.3,11.4c2,4,5.1,6,9.1,6
	c4.1,0.2,7.9-2.2,9.6-5.9c1.6-3,2.3-7,2.3-11.8c0.1-3.9-0.6-7.8-2.2-11.4C382.3,441.7,379.3,439.8,375.1,439.8z M374.8,470.3
	c-2.4,0-4.1-1.7-5.1-5c-0.7-2.6-1.1-5.2-1-7.9c0-2.7,0.3-5.4,1-8c1-3.5,2.7-5.3,5.1-5.3c4,0,6,4.3,6,13
	C380.9,465.9,378.9,470.3,374.8,470.3L374.8,470.3z"/>
<polygon class="st0" points="389.9,444.3 391,448.6 397,445.5 397.1,445.5 397.1,474.1 402.5,474.1 402.5,440.3 397.8,440.3 "/>
<path class="st0" d="M15.2,446.9c1.1-1.2,2.4-2.1,3.9-2.7c1.7-0.6,3.4-1,5.2-0.9c2.3,0,4.6,0.4,6.7,1.3l1.3-4.5
	c-2.5-1.1-5.3-1.7-8.1-1.5c-2.5,0-5.1,0.4-7.4,1.3c-2.2,0.8-4.1,2.1-5.8,3.7c-1.6,1.7-2.9,3.7-3.7,5.8c-0.9,2.4-1.4,4.9-1.3,7.5
	c0,2.5,0.4,4.9,1.2,7.3c0.7,2.1,1.9,4,3.4,5.6c1.5,1.6,3.4,2.8,5.5,3.5c2.3,0.9,4.8,1.3,7.2,1.3c3,0.1,6.1-0.4,8.9-1.5l-1-4.5
	c-2.2,0.9-4.5,1.4-6.9,1.3c-3.9,0-6.9-1.2-9.1-3.5s-3.3-5.6-3.3-9.7c0-1.9,0.3-3.8,0.9-5.6C13.3,449.5,14.1,448.1,15.2,446.9z"/>
<path class="st0" d="M84.5,454.3c-1.2-0.9-2.6-1.6-4.1-2c-1.6-0.4-3.3-0.7-5-0.7c-0.7,0-1.5,0-2.4,0.1c-0.8,0-1.5,0.1-2.3,0.2v-8.2
	h15v-4.6H65.2v35c0.8,0.1,1.8,0.2,3,0.3c1.2,0.1,2.6,0.1,4.3,0.1c1.2,0,2.5-0.1,3.7-0.2c1.2-0.1,2.4-0.4,3.6-0.7
	c1.1-0.3,2.2-0.8,3.3-1.3c1-0.5,1.8-1.2,2.6-2c0.8-0.9,1.5-2,1.9-3.2c0.5-1.4,0.7-2.9,0.7-4.3c0.1-1.7-0.3-3.4-1-5
	C86.7,456.4,85.7,455.2,84.5,454.3z M81.8,466.2c-0.4,0.9-1,1.6-1.8,2.2c-0.8,0.6-1.7,1.1-2.6,1.3c-1,0.3-2.1,0.4-3.1,0.4
	c-0.7,0-1.3,0-1.9,0c-0.6,0-1.1-0.1-1.7-0.2v-13.6c0.6-0.1,1.2-0.2,1.8-0.2c0.6,0,1.2,0,1.8,0c1.1,0,2.1,0.1,3.1,0.4
	c0.9,0.2,1.8,0.6,2.6,1.2c0.7,0.6,1.3,1.3,1.7,2.1c0.5,1,0.7,2.1,0.6,3.2C82.5,464.1,82.3,465.2,81.8,466.2L81.8,466.2z"/>
<polygon class="st0" points="35.6,443.8 45.5,443.8 45.5,474.1 51.2,474.1 51.2,443.8 61.2,443.8 61.2,439.1 35.6,439.1 "/>
<path class="st0" d="M143,453.9c-1.8-0.6-3.5-1.5-5.1-2.7c-1-0.8-1.6-2.1-1.6-3.4c0-1.2,0.5-2.4,1.4-3.2c1.3-1,3-1.6,4.6-1.5
	c2.3,0,4.6,0.5,6.7,1.6l1.4-4.6c-2.5-1.2-5.2-1.8-8-1.7c-3.1-0.2-6.2,0.8-8.6,2.8c-2.1,1.7-3.3,4.3-3.3,7.1c0,4.4,3.1,7.7,9.2,10
	c1.8,0.6,3.4,1.5,4.8,2.7c1,0.9,1.5,2.2,1.5,3.6c0.1,1.5-0.6,2.9-1.8,3.8c-1.4,1-3.2,1.5-4.9,1.4c-2.9,0-5.7-0.7-8.1-2.2l-1.3,4.7
	c2.8,1.6,5.9,2.3,9.1,2.2c4.1,0,7.3-1,9.6-3.1c2.1-1.8,3.2-4.5,3.1-7.3c0.1-2.2-0.7-4.4-2.1-6.1C147.8,456.3,145.5,454.8,143,453.9z
	"/>
<path class="st0" d="M227.5,439.8c-3.2-0.1-6.3,1.2-8.5,3.6c-2.1,2.3-3.3,5.3-3.2,8.4c-0.1,2.8,0.9,5.5,2.8,7.5c1.9,2,4.5,3,7.2,2.9
	c2.8,0.1,5.6-1,7.4-3.2h0.1c-0.4,3.1-2,6-4.3,8.1c-1.9,1.6-4.3,2.6-6.8,2.9c-1.2,0.2-2.4,0.2-3.5,0.1v4.6c1.3,0,2.7,0,4-0.2
	c5.4-0.5,9.5-2.7,12.4-6.5c2.7-3.6,4-8.2,4-13.8c0-4.3-1-7.7-3-10.3C234,441.2,230.9,439.6,227.5,439.8z M232.9,455
	c-1.2,2-3.4,3.2-5.8,3.1c-1.6,0.1-3.2-0.6-4.2-1.8c-1.1-1.3-1.7-3-1.6-4.8c-0.1-1.9,0.5-3.7,1.5-5.2c0.9-1.5,2.6-2.3,4.3-2.3
	c2.1,0,4,1.1,4.8,3c0.9,1.9,1.4,4,1.3,6.2C233.3,453.8,233.2,454.4,232.9,455L232.9,455z"/>
<path class="st0" d="M171.8,438.5c-4.6-0.2-9.1,1.9-12,5.5c-2.9,3.7-4.3,8.2-4.2,12.8c-0.2,4.5,1.2,8.9,4,12.5
	c2.8,3.5,7.1,5.5,11.6,5.3c5.2,0,9.2-1.8,12.1-5.5c2.7-3.3,4-7.7,4-13c0-5-1.3-9.2-4-12.4C180.6,440.3,176.3,438.3,171.8,438.5z
	 M179.3,465.6c-2.3,4.3-7.7,5.8-11.9,3.5c-1.4-0.8-2.6-2-3.4-3.4c-1.6-2.7-2.4-5.8-2.3-9c-0.1-3.2,0.7-6.3,2.3-9.1
	c1.5-2.9,4.5-4.6,7.7-4.6c3.2-0.1,6.1,1.7,7.6,4.5c1.6,2.7,2.4,5.8,2.3,8.9C181.6,459.6,180.9,462.8,179.3,465.6L179.3,465.6z"/>
<path class="st0" d="M254.5,439.8c-4.2,0-7.4,2-9.5,5.9c-1.8,3.6-2.6,7.6-2.5,11.6c-0.1,3.9,0.7,7.8,2.3,11.4c2,4,5,6,9.1,6
	c4.1,0.2,7.9-2.2,9.6-5.9c1.6-3,2.3-7,2.3-11.8c0.1-3.9-0.6-7.8-2.2-11.4C261.8,441.7,258.7,439.8,254.5,439.8z M254.3,470.3
	c-2.4,0-4.1-1.7-5.1-5c-0.7-2.6-1.1-5.2-1-7.9c0-2.7,0.3-5.4,1-8c1-3.5,2.7-5.3,5.1-5.3c4,0,6,4.3,6,13
	C260.3,465.9,258.3,470.3,254.3,470.3L254.3,470.3z"/>
</svg>
