<svg id="_1" data-name="1" xmlns="http://www.w3.org/2000/svg" viewBox="0 0 430.51 474.68"><defs><style>.cls-1{fill:#eff1f5;}</style></defs><title>ISO</title><path class="cls-1" d="M392.75,582.08q4.76,3.16,12.51,3.16c5,0,9.15-1.06,12.34-3.2a10.26,10.26,0,0,0,4.8-9.05v-43.5q0-13-17-13-17.37,0-17.36,13.14v43.5A10.17,10.17,0,0,0,392.75,582.08Zm10-54.34c0-1.35.79-2,2.38-2s2.26.68,2.26,2v46c0,1.35-.76,2-2.26,2s-2.38-.68-2.38-2Z" transform="translate(-82.38 -204.55)"/><path class="cls-1" d="M348.86,582.08q4.76,3.16,12.51,3.16c5,0,9.15-1.06,12.34-3.2a10.26,10.26,0,0,0,4.8-9.05v-43.5q0-13-17-13-17.37,0-17.36,13.14v43.5A10.17,10.17,0,0,0,348.86,582.08ZM359,527.73c0-1.35.79-2,2.38-2s2.26.68,2.26,2v46c0,1.35-.76,2-2.26,2s-2.38-.68-2.38-2Z" transform="translate(-82.38 -204.55)"/><path class="cls-1" d="M225.77,585.23c5,0,9.08-1.06,12.19-3.17a10.34,10.34,0,0,0,4.69-9.08v-43.5q0-13-16.8-13-17,0-17,13.14v43.5Q208.82,585.22,225.77,585.23Zm-2.45-57.5q0-2,2.46-2t2.37,2v46q0,2-2.37,2t-2.46-2Z" transform="translate(-82.38 -204.55)"/><path class="cls-1" d="M414.61,430.82c25.85-19.83,38.67-51.47,34.55-98.22l-108.66-.2,0-63.32c19.27.69,35.35,6.86,47.53,15.87l12,10.63c10.19-.08,29.83-.43,40-.31-.36-7-17.11-21-22.81-25.61-8.27-6.72-18.57-12.63-30.09-17.88-20.94-9.55-51.3-17.27-77.79-19.6l.29,229.08C350.52,460.07,389.47,450.12,414.61,430.82Zm-.41-68.53c-1.07,19.95-10.64,36.49-22.16,44.94s-33.59,16.76-52.32,15l-.06-59.54Z" transform="translate(-82.38 -204.55)"/><path class="cls-1" d="M142.68,298.85a98.81,98.81,0,0,0-14.86,51.71c0,38.4,19.49,65.1,48.11,85.44,24.63,17.5,75.65,29.75,105.23,26.17L280.91,430c-16.7-1.24-29.16-.11-45.13-3.73-24.61-5.57-46.24-16.94-60.5-37.67a68,68,0,0,1-11.45-38.07c.24-20.88,8.89-38.33,22.61-51.95,25.88-25.67,51.51-30.45,90.65-31.63l0-32.09c-14.81-1.54-44.95,4.83-57.52,8.82-17.12,5.44-41.88,16.4-54.11,28.88C155.63,282.6,153.69,281.55,142.68,298.85Z" transform="translate(-82.38 -204.55)"/><polygon class="cls-1" points="113.73 133.5 138.81 133.03 139.21 197.12 159.31 197.25 169.68 196.83 169.69 132.51 195.44 132.27 195.47 103.35 113.33 102.82 113.73 133.5"/><path class="cls-1" d="M436,584.65h14.88V517H438a8.85,8.85,0,0,1-2.21,5.43,6.72,6.72,0,0,1-5.43,2.79v9.86H436Z" transform="translate(-82.38 -204.55)"/><path class="cls-1" d="M317.31,585.23q17,0,17-13.09V528.59a10.24,10.24,0,0,0-4.67-9q-4.66-3.16-12.26-3.16c-5,0-9.05,1.06-12.16,3.17a10.34,10.34,0,0,0-4.64,9.07V544.4a9.45,9.45,0,0,0,3.7,7.92,15.35,15.35,0,0,0,9.6,2.85c2.9,0,4.86-.56,5.93-1.69v20.07c0,1.47-.79,2.21-2.35,2.21s-2.38-.74-2.38-2.22v-17.2h-14.5V572.2Q300.61,585.22,317.31,585.23Zm.18-39c-1.59,0-2.38-.74-2.38-2.21V527.9c0-1.47.79-2.19,2.38-2.19s2.35.72,2.35,2.19V544C319.84,545.45,319,546.19,317.48,546.19Z" transform="translate(-82.38 -204.55)"/><path class="cls-1" d="M184.51,585.23q17.27,0,17.27-13.48v-8.62a13.42,13.42,0,0,0-2.53-8q-2.54-3.53-11.87-12.43-5-5-5-8.76l-.29-4.4q0-3.82,2.66-3.82c1.51,0,2.27.68,2.27,2v12.4h13.53V528.41q0-12-15.43-12-17.23,0-17.23,13.14v7.59a11.47,11.47,0,0,0,2.32,6.94q2.32,3.14,11.81,12.34,4.9,5,4.91,8.63v8c0,1.53-.9,2.3-2.71,2.3s-2.8-.77-2.8-2.32V557.53H167.86V573Q167.86,585.23,184.51,585.23Z" transform="translate(-82.38 -204.55)"/><rect class="cls-1" x="62.39" y="312.46" width="14.88" height="67.64"/><path class="cls-1" d="M160.34,616.52H429a78.16,78.16,0,0,0,78-78V282.5h0a78.16,78.16,0,0,0-78-78H160.34a78.16,78.16,0,0,0-78,78h0V538.57a78.16,78.16,0,0,0,78,78ZM429,218.72a64,64,0,0,1,63.78,63.78V417.37A64,64,0,0,1,429,481.15H160.34a64,64,0,0,1-63.78-63.78V282.5a64,64,0,0,1,63.78-63.78ZM96.56,462a78.83,78.83,0,0,0,8.72,10.4,77.72,77.72,0,0,0,55.06,22.89H429a77.72,77.72,0,0,0,55.06-22.89,78.83,78.83,0,0,0,8.72-10.4v76.54A64,64,0,0,1,429,602.35H160.34a64,64,0,0,1-63.78-63.78Z" transform="translate(-82.38 -204.55)"/><rect class="cls-1" x="118.6" y="439.08" width="5.61" height="35.03"/><path class="cls-1" d="M363.9,644.31q-6.34,0-9.46,5.92a24.53,24.53,0,0,0-2.49,11.64,24.84,24.84,0,0,0,2.34,11.38q3,6,9.15,6a10,10,0,0,0,9.56-5.92q2.34-4.57,2.34-11.8a25.41,25.41,0,0,0-2.23-11.38Q370.14,644.31,363.9,644.31Zm-.26,30.56q-3.59,0-5.09-5a27.6,27.6,0,0,1-1-7.9,28.71,28.71,0,0,1,1-8q1.56-5.25,5.09-5.25,6,0,6,13Q369.67,674.87,363.64,674.87Z" transform="translate(-82.38 -204.55)"/><polygon class="cls-1" points="296.33 444.33 297.37 448.59 303.4 445.48 303.5 445.48 303.5 474.11 308.9 474.11 308.9 440.33 304.18 440.33 296.33 444.33"/><path class="cls-1" d="M426.94,673.88l2.75-2.55a52.34,52.34,0,0,0,7.64-8.42,15.09,15.09,0,0,0,3-8.57,9.74,9.74,0,0,0-2.6-7q-2.91-3.07-8.11-3.07a15,15,0,0,0-9.82,3.38l1.66,4a11.49,11.49,0,0,1,7.07-2.75q6.18,0,6.13,6,0,3.33-3,7.22a100.5,100.5,0,0,1-8.83,9.41L419,675.23v3.43h22V674H426.94Z" transform="translate(-82.38 -204.55)"/><rect class="cls-1" x="319.92" y="458.21" width="12.94" height="3.95"/><path class="cls-1" d="M508.42,658.91a14.41,14.41,0,0,0-7.74-2,18.85,18.85,0,0,0-2.44.16l1.09-7.48H512v-4.68H495.33l-2.18,16.58a33.46,33.46,0,0,1,4.52-.31q9.46,0,9.51,6.91a6,6,0,0,1-2.21,4.89,8,8,0,0,1-5.27,1.82,14.15,14.15,0,0,1-7.17-1.82l-1.25,4.31a16.62,16.62,0,0,0,8.57,2,13.4,13.4,0,0,0,9.41-3.33,10.8,10.8,0,0,0,3.64-8.31Q512.89,661.77,508.42,658.91Z" transform="translate(-82.38 -204.55)"/><path class="cls-1" d="M457.49,644.31q-6.34,0-9.46,5.92a24.53,24.53,0,0,0-2.49,11.64,24.84,24.84,0,0,0,2.34,11.38q3,6,9.15,6a10,10,0,0,0,9.56-5.92q2.34-4.57,2.34-11.8a25.41,25.41,0,0,0-2.23-11.38Q463.73,644.31,457.49,644.31Zm-.26,30.56q-3.59,0-5.09-5a27.6,27.6,0,0,1-1-7.9,28.71,28.71,0,0,1,1-8q1.56-5.25,5.09-5.25,6,0,6,13Q463.26,674.87,457.23,674.87Z" transform="translate(-82.38 -204.55)"/><polygon class="cls-1" points="389.92 444.33 390.96 448.59 396.99 445.48 397.09 445.48 397.09 474.11 402.5 474.11 402.5 440.33 397.77 440.33 389.92 444.33"/><path class="cls-1" d="M97.62,651.4a10.77,10.77,0,0,1,3.92-2.68,13.83,13.83,0,0,1,5.22-.94,15.85,15.85,0,0,1,6.65,1.35l1.25-4.52a17.68,17.68,0,0,0-8.11-1.51,20.18,20.18,0,0,0-7.43,1.33,16.44,16.44,0,0,0-5.77,3.74A16.86,16.86,0,0,0,89.64,654a20.54,20.54,0,0,0-1.32,7.51,21.09,21.09,0,0,0,1.2,7.28,15.38,15.38,0,0,0,3.43,5.56,15.17,15.17,0,0,0,5.46,3.53,19.87,19.87,0,0,0,7.22,1.25,21.16,21.16,0,0,0,8.89-1.51l-1-4.47a16.19,16.19,0,0,1-6.91,1.3q-5.82,0-9.09-3.48t-3.27-9.72a16.74,16.74,0,0,1,.88-5.61A12.09,12.09,0,0,1,97.62,651.4Z" transform="translate(-82.38 -204.55)"/><path class="cls-1" d="M166.89,658.81a12,12,0,0,0-4.11-2,18.57,18.57,0,0,0-5-.65q-1,0-2.36.08a21.77,21.77,0,0,0-2.26.23v-8.21h15v-4.63H147.61v35q1.2.16,3,.29t4.31.13a33.84,33.84,0,0,0,3.74-.21,22.2,22.2,0,0,0,3.61-.7,15.38,15.38,0,0,0,3.25-1.33,10.07,10.07,0,0,0,2.6-2,10.29,10.29,0,0,0,1.9-3.2,12.19,12.19,0,0,0,.7-4.34,11.05,11.05,0,0,0-1-5A9.72,9.72,0,0,0,166.89,658.81Zm-2.68,11.9a6.26,6.26,0,0,1-1.77,2.23,7.68,7.68,0,0,1-2.6,1.33,11,11,0,0,1-3.14.44q-1,0-1.87-.05a13.65,13.65,0,0,1-1.66-.21V660.89a15.37,15.37,0,0,1,1.77-.21q.88-.05,1.82-.05a12.31,12.31,0,0,1,3.14.39,7.23,7.23,0,0,1,2.57,1.22,6,6,0,0,1,1.74,2.13,7,7,0,0,1,.65,3.17A7.24,7.24,0,0,1,164.22,670.71Z" transform="translate(-82.38 -204.55)"/><polygon class="cls-1" points="35.56 443.81 45.53 443.81 45.53 474.11 51.2 474.11 51.2 443.81 61.23 443.81 61.23 439.08 35.56 439.08 35.56 443.81"/><path class="cls-1" d="M225.41,658.5a18.2,18.2,0,0,1-5.09-2.7,4.28,4.28,0,0,1-1.61-3.43,4.16,4.16,0,0,1,1.4-3.17,6.79,6.79,0,0,1,4.63-1.46,13.81,13.81,0,0,1,6.7,1.61l1.4-4.57a17,17,0,0,0-8-1.66,12.85,12.85,0,0,0-8.6,2.75,8.85,8.85,0,0,0-3.25,7.07q0,6.6,9.2,10a13.55,13.55,0,0,1,4.83,2.7,4.87,4.87,0,0,1,1.46,3.59,4.66,4.66,0,0,1-1.77,3.82,7.65,7.65,0,0,1-4.94,1.43,15.63,15.63,0,0,1-8.11-2.18l-1.3,4.68a16.74,16.74,0,0,0,9.09,2.18q6.13,0,9.56-3.07a9.33,9.33,0,0,0,3.12-7.28,8.92,8.92,0,0,0-2.13-6.08A17.24,17.24,0,0,0,225.41,658.5Z" transform="translate(-82.38 -204.55)"/><path class="cls-1" d="M309.91,644.31a11.13,11.13,0,0,0-8.52,3.64,11.77,11.77,0,0,0-3.22,8.37,10.39,10.39,0,0,0,2.78,7.48,9.51,9.51,0,0,0,7.2,2.91,9.34,9.34,0,0,0,7.43-3.17h.1a13.27,13.27,0,0,1-4.31,8.11,12,12,0,0,1-6.81,2.86,15.92,15.92,0,0,1-3.53.1v4.57A30.45,30.45,0,0,0,305,679q8.05-.78,12.37-6.55,4.05-5.35,4.05-13.77,0-6.44-3-10.29A10.17,10.17,0,0,0,309.91,644.31Zm5.4,15.23a6.14,6.14,0,0,1-5.77,3.07,5.3,5.3,0,0,1-4.24-1.84,7,7,0,0,1-1.59-4.75,8.62,8.62,0,0,1,1.51-5.2,5,5,0,0,1,4.31-2.29,5.19,5.19,0,0,1,4.83,3,12.9,12.9,0,0,1,1.3,6.18A4,4,0,0,1,315.31,659.53Z" transform="translate(-82.38 -204.55)"/><path class="cls-1" d="M254.2,643.06a14.6,14.6,0,0,0-12,5.51,19.76,19.76,0,0,0-4.16,12.84,19.17,19.17,0,0,0,4,12.47,14.17,14.17,0,0,0,11.64,5.35q7.74,0,12.11-5.46,4.05-5,4.05-13,0-7.54-4-12.42A14.28,14.28,0,0,0,254.2,643.06Zm7.48,27.07a8.8,8.8,0,0,1-15.38.1,16.63,16.63,0,0,1-2.34-9,17.12,17.12,0,0,1,2.29-9.09,8.53,8.53,0,0,1,7.74-4.57,8.44,8.44,0,0,1,7.59,4.47,16.52,16.52,0,0,1,2.34,8.94A17.54,17.54,0,0,1,261.68,670.14Z" transform="translate(-82.38 -204.55)"/><path class="cls-1" d="M336.93,644.31q-6.34,0-9.46,5.92A24.52,24.52,0,0,0,325,661.87a24.84,24.84,0,0,0,2.34,11.38q3,6,9.15,6a10,10,0,0,0,9.56-5.92q2.34-4.57,2.34-11.8a25.41,25.41,0,0,0-2.23-11.38Q343.17,644.31,336.93,644.31Zm-.26,30.56q-3.59,0-5.09-5a27.6,27.6,0,0,1-1-7.9,28.71,28.71,0,0,1,1-8q1.56-5.25,5.09-5.25,6,0,6,13Q342.7,674.87,336.67,674.87Z" transform="translate(-82.38 -204.55)"/></svg>