<svg id="Layer_1" data-name="Layer 1" xmlns="http://www.w3.org/2000/svg" viewBox="0 0 188 150.67"><defs><style>.cls-1{fill:#4d4d4d;}.cls-2{fill:none;stroke-miterlimit:10;}.cls-2,.cls-3{stroke:#4d4d4d;stroke-linecap:round;stroke-width:2px;}.cls-3{fill:#fff;stroke-linejoin:round;}</style></defs><title>ИКОНКА</title><path class="cls-1" d="M82.49,51.34a12.61,12.61,0,0,0-11.81,13,13.29,13.29,0,0,0,13.26,12.5C101.33,77,99.49,49.29,82.49,51.34ZM83.95,74.7A11.13,11.13,0,0,1,72.81,64.33a10.45,10.45,0,0,1,9.68-10.87C96.73,51.75,98.61,74.67,83.95,74.7Z"/><path class="cls-1" d="M120.19,64.72c-.06-1.8.58-5.4-1-6.75s-5.2-1-7.5-1a55.47,55.47,0,0,0-1.66-5.4c-.28-.68-1.43-2-1.22-2.69.31-.95,3.42-2.37,4.11-3.37a3,3,0,0,0,.63-2.62c-.43-1.7-2.5-3-3.68-4.11s-2.69-3.19-4.25-3.81c-2.51-1-5,2.42-6.64,4.33-2-1.18-4.06-1.82-6.16-2.81-1.5-.71-1.78-.74-2.1-2.25-.25-1.23.21-2.63-.09-3.93-.87-3.77-4.81-2.63-7.78-2.39s-6.46-.32-6.62,3.47c-.05,1.21.57,2.8.14,4-.37,1-.64.74-2,1.24a30.3,30.3,0,0,0-5.92,2.87c-1.46-1.8-3.15-4.28-5.62-4.16-2.63.13-5.14,3.48-6.8,5.19-3.4,3.5.16,5.89,2.74,8.55a24.35,24.35,0,0,0-3.88,8.19c-2.33-.45-5.6-.77-7.22.84s-.9,6-.74,8.07c.14,1.8.06,4.12,1.79,5.1s4.52.51,6.58.22a36.54,36.54,0,0,0,1.85,5.48c.18.42,1,1.56.94,1.95,0,.11-.49.46-.66.77-1,1.73-4.48,3.32-3.62,5.87.81,2.4,5.8,6.7,8.19,7.62,2.66,1,4.88-1.81,6.68-3.66a18.52,18.52,0,0,0,8.26,3.35c-.13,2.35-1,5.62.41,7.32,1.08,1.27,3.65,1,5,1,1.87,0,4.26.32,6-.39a3.22,3.22,0,0,0,2.22-2.58c.29-1.38-1-3.89-.33-5,.52-.93,3.63-1.49,4.77-2.09,1.9-1,3.48-2.87,5.46-1.09s3,5.12,6,3.3a20.09,20.09,0,0,0,6-6.09c1.48-2.45.4-3.4-1.53-5.14s-2.7-1.66-1.54-4.3a62.37,62.37,0,0,0,2.32-6.65c2.26.12,5.59.66,7.35-.47S120.25,66.44,120.19,64.72Zm-3.45,4.21c-1.54.49-4.13,0-5.74,0a1,1,0,0,0-.79.36,1.09,1.09,0,0,0-.24.42c-.95,3-2.32,5.77-3.37,8.66a2.67,2.67,0,0,0,.51,3.05c.92,1.18,3.16,2,3.72,3.34s-2.3,3.94-3.2,4.84c-.48.47-1.31,1.5-2,1.68-1.3.35-1.76-.58-2.68-1.65s-1.89-2.81-3.48-3c-1.11-.14-2.33.74-3.26,1.26A21.68,21.68,0,0,1,89,90.8a1,1,0,0,0-.74.74,27.36,27.36,0,0,0,.13,4c0,3.61-3.14,3.58-6,3.51-2.58-.06-3.55-.06-3.45-2.76A40.28,40.28,0,0,0,79,91.89,1.1,1.1,0,0,0,78,90.82a16.16,16.16,0,0,1-8.68-3.5,1.14,1.14,0,0,0-.42-.21,1,1,0,0,0-1.09.21c-.93.85-2.67,3.19-3.86,3.54-2.06.6-3.94-1.8-5.25-3.06-1.05-1-2.94-2.22-2.4-3.87.37-1.14,2.08-2.26,2.94-3.07s1.28-1.16,1-2.43c-.33-1.42-1.35-2.81-1.86-4.2A38.82,38.82,0,0,1,57.08,70a1.07,1.07,0,0,0-1-.78c-1.11.13-2.23.25-3.35.29-2,.07-3.1.3-3.52-1.94a18.36,18.36,0,0,1-.28-5.28c.12-.92.19-2.44,1.1-3s4.31,0,5.34.22a1.08,1.08,0,0,0,1.31-.74A23.25,23.25,0,0,1,61,49.46a1.07,1.07,0,0,0-.17-1.29c-1.53-1.75-5-3.72-3.36-6.21a13.88,13.88,0,0,1,3.58-3.41c3.15-1.47,4.4.74,6.15,2.76a.94.94,0,0,0,1.44.47,34.13,34.13,0,0,1,7.4-3.52,4.75,4.75,0,0,0,1.78-.89,4.29,4.29,0,0,0,.7-2.64c0-.9-.39-2-.19-2.82.42-1.78,2.24-1.73,3.81-1.85,1-.08,2.22-.19,3.24-.26a4.21,4.21,0,0,1,2.65.48c.91.51.49,1.51.59,2.7s-.5,2.58.23,3.8a3.35,3.35,0,0,0,2.18,1.42,33.7,33.7,0,0,1,7.39,3.24,1.12,1.12,0,0,0,.26.12,1,1,0,0,0,1.18-.19c1.13-1.13,2.45-3.12,3.85-3.83,1.75-.88,2.72.95,4.11,2.25s4.06,2.87,2.66,5.08c-.69,1.09-2.35,1.5-3.24,2.46a2.08,2.08,0,0,0-.5,2.62c.4,1.12,1.14,2.08,1.53,3.23.57,1.66,1,3.38,1.53,5.05a1.11,1.11,0,0,0,1,.78,29.35,29.35,0,0,1,5.28.41c2.53.7,1.86,3.09,1.93,5.29C118.12,66.51,118.65,68.32,116.74,68.93Z"/><path class="cls-1" d="M78.59,46a12.29,12.29,0,0,1,3.94-.61,1.06,1.06,0,0,0,0-2.13A14.21,14.21,0,0,0,78,44C76.73,44.41,77.28,46.47,78.59,46Z"/><path class="cls-1" d="M90.41,46.66a7.44,7.44,0,0,1,3,1.55c1,.89,2.54-.61,1.5-1.5A9.83,9.83,0,0,0,91,44.61,1.06,1.06,0,0,0,90.41,46.66Z"/><path class="cls-1" d="M103,56.44a13.33,13.33,0,0,0-2-3.68,1.1,1.1,0,0,0-1.45-.38,1.07,1.07,0,0,0-.38,1.45A11.59,11.59,0,0,1,100.94,57C101.4,58.28,103.45,57.73,103,56.44Z"/><path class="cls-1" d="M102.16,65.16a24,24,0,0,1-.64,3.69,1.06,1.06,0,0,0,2,.57,27.67,27.67,0,0,0,.71-4.25C104.41,63.8,102.29,63.81,102.16,65.16Z"/><path class="cls-1" d="M99.3,75.53a1.07,1.07,0,0,0-1.45.38,5.35,5.35,0,0,1-2.29,2.51c-1.2.67-.12,2.5,1.07,1.84A7.25,7.25,0,0,0,99.68,77,1.09,1.09,0,0,0,99.3,75.53Z"/><path class="cls-1" d="M88.26,82.08c-1.21.22-2.43.38-3.66.49s-1.36,2.25,0,2.13,2.83-.31,4.23-.57S89.6,81.84,88.26,82.08Z"/><path class="cls-1" d="M76.82,81.36a10.45,10.45,0,0,1-3.45-1.69,1.07,1.07,0,0,0-1.45.38,1.09,1.09,0,0,0,.38,1.45,12.1,12.1,0,0,0,4,1.91A1.06,1.06,0,0,0,76.82,81.36Z"/><path class="cls-1" d="M66.13,70.81a1.06,1.06,0,0,0-2,.57,11.46,11.46,0,0,0,2.12,4.11,1.07,1.07,0,0,0,1.5,0,1.09,1.09,0,0,0,0-1.5A8.86,8.86,0,0,1,66.13,70.81Z"/><path class="cls-1" d="M65.16,63a21.79,21.79,0,0,1,.29-3.86c.23-1.34-1.82-1.91-2-.57A25,25,0,0,0,63,63,1.06,1.06,0,0,0,65.16,63Z"/><path class="cls-1" d="M70.69,48a13.19,13.19,0,0,0-3.38,3,1.1,1.1,0,0,0,0,1.5,1.07,1.07,0,0,0,1.5,0,11.52,11.52,0,0,1,3-2.62C72.92,49.12,71.86,47.28,70.69,48Z"/><line class="cls-2" x1="39.73" y1="79.87" x2="2.1" y2="79.87"/><line class="cls-2" x1="185.95" y1="79.87" x2="146.69" y2="79.87"/><path class="cls-3" d="M135.37,98.6l5.71-.76-.91-6.66-5.68.76c-.19-.57-.42-1.13-.66-1.68l4.69-3.3-3.87-5.5L130,84.76c-.43-.42-.89-.81-1.36-1.19l2.64-5.09-6-3.1-2.64,5.09a18.3,18.3,0,0,0-2.57-.56V73.74h-6.73v6.49a19.14,19.14,0,0,0-1.88.56l-2.94-4.93-5.78,3.42,2.93,4.94c-.44.41-.87.82-1.29,1.26l-4.87-3L96,88.17l4.87,3a17,17,0,0,0-.56,1.72l-5.73-.44L94,99.17l5.71.44a17.45,17.45,0,0,0,.3,1.79l-5.28,2.24,2.63,6.18,5.27-2.24c.35.5.7,1,1.08,1.45l-3.65,4.42,5.18,4.28,3.65-4.42a17.22,17.22,0,0,0,1.63.8l-1.19,5.6,6.56,1.41,1.2-5.61h.4a13.89,13.89,0,0,0,1.41-.07l1.51,5.54,6.48-1.77-1.51-5.54a15.67,15.67,0,0,0,1.57-.88l3.91,4.22,4.93-4.56-3.91-4.22c.36-.48.69-1,1-1.5l5.41,1.94,2.28-6.33-5.41-1.94A18,18,0,0,0,135.37,98.6Zm-17.84,8.55a9.54,9.54,0,1,1,9.53-9.53A9.53,9.53,0,0,1,117.53,107.15Z"/></svg>