<svg id="Layer_1" data-name="Layer 1" xmlns="http://www.w3.org/2000/svg" viewBox="0 0 188 150.67"><defs><style>.cls-1,.cls-2{fill:none;stroke:#4d4d4d;stroke-linecap:round;stroke-miterlimit:10;}.cls-1{stroke-width:2px;}.cls-2{stroke-width:3px;}</style></defs><title>ИКОНКА</title><line class="cls-1" x1="30.7" y1="80.63" x2="2.08" y2="80.63"/><line class="cls-1" x1="185.92" y1="80.63" x2="157.3" y2="80.63"/><path class="cls-2" d="M89.29,41.41V54.71A11.39,11.39,0,0,0,100.68,66.1h22l17.12,12.47L139,66.1a11.39,11.39,0,0,0,11.4-11.39V41.41A11.39,11.39,0,0,0,139,30H100.68A11.39,11.39,0,0,0,89.29,41.41Z"/><line class="cls-2" x1="132.17" y1="39.86" x2="101.59" y2="39.86"/><line class="cls-2" x1="139.85" y1="55.61" x2="118.02" y2="55.61"/><line class="cls-2" x1="139.85" y1="47.73" x2="124.49" y2="47.73"/><line class="cls-2" x1="112.3" y1="47.73" x2="102.56" y2="47.73"/><path class="cls-2" d="M119.82,74.11V89.82a13.45,13.45,0,0,1-13.45,13.45h-26L60.12,118l1-14.73A13.45,13.45,0,0,1,47.71,89.82V74.11A13.45,13.45,0,0,1,61.17,60.66h45.21A13.45,13.45,0,0,1,119.82,74.11Z"/><line class="cls-2" x1="69.18" y1="72.28" x2="105.3" y2="72.28"/><line class="cls-2" x1="60.12" y1="90.88" x2="85.89" y2="90.88"/><line class="cls-2" x1="60.12" y1="81.58" x2="78.25" y2="81.58"/><line class="cls-2" x1="92.65" y1="81.58" x2="104.15" y2="81.58"/></svg>