<svg id="Layer_1" data-name="Layer 1" xmlns="http://www.w3.org/2000/svg" viewBox="0 0 188 150.67"><defs><style>.cls-1{fill:#4d4d4d;}.cls-2{fill:none;stroke:#4d4d4d;stroke-linecap:round;stroke-miterlimit:10;stroke-width:2px;}</style></defs><title>ИКОНКА</title><path class="cls-1" d="M137.88,34.84c-5.07-4.73-9.87-6.09-16.38-3.4-5.76,2.38-10.26,7.59-14.8,11.73-6.83,6.23-13.42,12.74-19.9,19.34Q77.43,72.09,68.4,82c-2.68,2.94-5.71,5.86-8,9.13a1.56,1.56,0,0,0-.24.34,1.51,1.51,0,0,0-.2.41c-1.6,3.22-2.26,7.15-3.05,10.58A122.47,122.47,0,0,0,54,119.12c-.1,1.07,1,1.58,1.9,1.45,8.77-1.37,17.43-3.31,26.17-4.85,3.56-.63,5.11-3.08,7.6-5.66q6.26-6.47,12.48-13C109.91,89,117.62,81,125.47,73c6.47-6.54,15.61-13.63,18.7-22.63C146.44,43.75,142.53,39.17,137.88,34.84Zm-9.28,31.11c-3.59-3-6.32-6.43-9.55-9.85-3.39-3.6-7-7-10.68-10.29l2-1.85q10.15,10,20,20.23Zm-8,7.8c-6.35-7.17-13.77-13.33-21-19.63l1.79-1.72c7.65,5.61,14.13,13,20.8,19.71l-.76.76ZM81.82,102.5h0c-2.85.17-5.71.17-8.57.26-.1-2.18-.08-5.65-.88-7.67,5.15-5,9.59-10.56,14.5-15.82C92.4,73.33,98.28,67.69,104,61.94c3,2.6,5.92,5.25,8.75,8C102.71,81,92.5,92,81.82,102.5Zm24.9-55.16,1.59,1.46a43.55,43.55,0,0,1-3.38,3.49c-.63-.5-1.28-1-1.92-1.46Q104.86,49.08,106.72,47.34Zm7.34,13.25a35,35,0,0,0,3.31-3l.11.11c.63.67,1.23,1.33,1.83,2a26.4,26.4,0,0,1-3.1,3.07Q115.14,61.67,114.06,60.6ZM112.45,59c-.62-.6-1.24-1.21-1.86-1.8q1.55-1.67,3.17-3.28,1,1,2,2A35,35,0,0,1,112.45,59Zm-3.53-3.31q-1.11-1-2.25-2A43.55,43.55,0,0,0,110,50.33l2.18,2Q110.5,54,108.92,55.71Zm8.85,8.66a26.39,26.39,0,0,0,3-3c.66.74,1.33,1.47,2,2.19q-1.5,1.47-2.87,3.06Zm-37.3,9q8.32-8.77,17-17.21l4.88,4.25c-5.69,5.72-11.53,11.32-17,17.22-4.91,5.26-9.35,10.77-14.5,15.82a23.12,23.12,0,0,0-2.62-.4c-1.65-.3-3.31-.55-5-.77C68,85.5,74.75,79.44,80.47,73.41ZM69,115.4a65.15,65.15,0,0,0-9.8-9.77c.17-.8.34-1.59.53-2.39a59.76,59.76,0,0,1,2.29-8.84c2.39.21,6.13.26,8.23,1.33-.81-.27,0,1.5.13,2.65.23,1.84.45,3.68.66,5.51A1.15,1.15,0,0,0,72.2,105c2.12-.08,4.3.05,6.41-.14,2.3-.21,2.22-.67,2.47,1.59.23,2.06.39,4.13.54,6.19-.26.09-.52.17-.79.24C77,113.88,73,114.68,69,115.4Zm32.31-21.78Q96,99.2,90.64,104.77c-2.17,2.26-4.24,5.06-6.85,6.79-.17-2.38-.37-4.77-.73-7.12,10.81-10.6,21.13-21.68,31.29-32.92q2.12,2.13,4.11,4.38Q109.85,84.71,101.34,93.62Zm22.44-23.09-2.27-2.3q1.38-1.59,2.88-3.07c.81.8,1.67,1.58,2.58,2.34C125.9,68.52,124.83,69.53,123.79,70.53Zm16.69-19.1a44.78,44.78,0,0,1-8,10.63q-9.84-10.19-19.94-20.12l.44-.41c4.53-4.09,10.2-10.21,17-8.32,3.16.87,5.75,3.63,7.88,6C141.41,43,143.06,46.29,140.48,51.43Z"/><path class="cls-1" d="M122,39.18c-.27-1.42-2.43-.82-2.17.6a45.23,45.23,0,0,0,1.56,6c.46,1.37,2.63.78,2.17-.6A45.24,45.24,0,0,1,122,39.18Z"/><path class="cls-1" d="M125.83,38.4c-.46-1.37-2.63-.78-2.17.6l1.69,5.08c.46,1.37,2.63.78,2.17-.6Z"/><line class="cls-2" x1="59.33" y1="80.1" x2="2.08" y2="80.1"/><line class="cls-2" x1="185.92" y1="80.1" x2="128.67" y2="80.1"/></svg>