<svg id="Layer_1" data-name="Layer 1" xmlns="http://www.w3.org/2000/svg" viewBox="0 0 188 150.67"><defs><style>.cls-1{fill:#4d4d4d;}.cls-2{fill:none;stroke:#4d4d4d;stroke-linecap:round;stroke-miterlimit:10;stroke-width:2px;}</style></defs><title>ИКОНКА</title><path class="cls-1" d="M70.07,104.63c2.25-2.38,4.64-4.73,6.69-7.29,1-1.2,1.44-2.32.94-3.72a1.15,1.15,0,0,0-1-1c-3.77-1.35-7,3.44-9.35,5.83-3,3.07-7,6.52-8.22,10.7a1.13,1.13,0,0,0,.29,1.09C63.19,114,67.79,107,70.07,104.63ZM64,107.79c-.61.55-2.45,2-2.52,1.72-.28-1.21,2.13-3.56,2.93-4.48,1-1.14,2-2.27,3-3.38s5.94-7.3,8.25-7c-.05,1.89-5.84,7-6.77,8L65.66,106C65.1,106.58,64.56,107.24,64,107.79Z"/><path class="cls-1" d="M75,103.1c-2.37,2.49-4.74,5-7,7.55-1.75,1.95-2.87,3-2.53,5.58h0s0,.09,0,.14a.88.88,0,0,0,.53.73c3.23,2.83,8.76-4.62,10.55-6.52s9-7.89,7.17-11.33C81.59,95.22,76.34,101.75,75,103.1Zm-7.4,12.2c.21-2.64,5-6.41,6.61-8.11.92-1,6-7,6.78-6.13C82.32,102.41,69.84,114.8,67.65,115.3Z"/><path class="cls-1" d="M139.55,99.37c-9.27-9.33-19.32-17.87-29.3-26.48Q119,64.18,127.7,55.33c1.31-1.34,2.6-2.9,4-4.13,2-1.78,3.07-1.48,5.55-2a5.22,5.22,0,0,0,2.18-.63c2.67-1.77,4.64-7.11,6-9.88s1.25-3.33-.91-5.62-3.16-4-6-2.5c-3.25,1.73-8.4,3.85-10.86,6.63a4.27,4.27,0,0,0-1,1.88q0,1,0,2A7.83,7.83,0,0,1,124,45.47c-1.11,1.31-2.49,2.47-3.7,3.69Q111.6,57.83,103,66.55c-4.67-4.1-9.27-8.26-13.73-12.57,4.23-6.19,4.88-14.18.22-20.37-4.87-6.45-11.52-8.37-19.15-6.83a1.51,1.51,0,0,0-.9,2.2c1.46,2.45,2.85,4.94,4.24,7.44A27.43,27.43,0,0,0,75.08,39a3.51,3.51,0,0,1,.53,1.21c-.49,2.44-1.87,5.06-2.87,7.42l-4.3-.21a12.28,12.28,0,0,0-3.32-.16l-.12,0c-2.26-3.52-4.31-7.2-6.44-10.79a1.52,1.52,0,0,0-2.36-.3c-6.26,5.59-6.38,15.89-1.27,22.33,5.89,7.42,14.56,8.21,22.94,5.78q6.72,6.95,13.45,13.88l-1.51,1.5C88,78,86.18,76.34,84.3,74.74a1.54,1.54,0,0,0-2.12,0A17.5,17.5,0,0,0,78.59,79c-1.19,2.35-.07,4.72-.94,7.17-.29.89-6,1-7.26,1.58-2.19,1-4.18,3.05-5.92,4.67a78.84,78.84,0,0,0-6.92,7.43c-1.61,1.93-4.33,4.47-5.43,6.74-1.62,3.35,2,6.16,4.12,8.53,2.8,3.15,6.79,8,10.57,9.86,4.14,2,7-2.79,9.62-5.39,3.89-3.92,8.12-7.83,11.4-12.29a7.78,7.78,0,0,0,1.78-4.13c.33-3.16-1.08-4.49,3.09-5.08,3.72-.52,5.88-2,8.5-4.89a1.53,1.53,0,0,0,0-2.12q-2.29-2.44-4.63-4.82L97.92,85q8.46,8.72,16.92,17.45,4.57,4.7,9.16,9.38c3.07,3.12,6.08,7,10.19,8.68,5.83,2.39,11.51-.92,13.11-6.84S143.29,103.13,139.55,99.37ZM118.71,53.92c3-3,8.72-6.82,10.06-10.92.34-1.05-.13-3.32.13-3.83.56-1.1,3.45-2.28,4.42-2.86,1.58-1,3.18-1.88,4.78-2.81,2.13-1.24,2.15-1.56,3.87.17,1.36,1.36,2.17,1.79,1.75,3.59-.36,1.54-1.78,3.3-2.57,4.67s-1.55,3.34-2.68,4.32-3,.86-4.54,1.19c-4.41.91-7.47,6-10.5,9Q116,64,108.54,71.42L104.66,68Q111.68,61,118.71,53.92ZM64.8,47.34c-.65.14-.4-.14,0,0ZM96.39,93.71c-2.43,1.74-3.92.94-6.56,1.37s-3.38,1.8-3.44,4.29c0,2.11.54,3.72-.55,5.68s-3.1,3.72-4.62,5.36c-1.86,2-3.77,3.94-5.68,5.88q-1.84,1.86-3.69,3.7c-1.39,1.39-1.37,1.84-3.43,1.56-3.42-.46-7.35-5.53-9.66-8.08-1.43-1.58-3.86-3.64-3.43-5.94.39-2.12,4.46-5.68,5.95-7.4,3.25-3.74,7.82-9.62,13-10.06,2.59-.22,5.34-.13,6.29-3.07.73-2.06,0-3.9.48-5.88a7.72,7.72,0,0,1,2.25-3.3c5.2,4.51,10.06,9.36,14.79,14.36A12.65,12.65,0,0,1,96.39,93.71Zm-1.41-9Q93.23,83,91.44,81.23l1.45-1.44,3.47,3.58Zm48.89,27.42c-.39,4-2.92,7.08-7.47,6-3.34-.8-5.86-3.94-8.18-6.28C116,99.53,104,87,91.95,74.54l-12.57-13,0,0a1.3,1.3,0,0,0-1.42-.35c-6.82,2.15-13.23,2.46-19-2.74-5.18-4.68-6.3-13.24-1.94-18.68l3.1,5.19c.77,1.28,1.68,4,3,4.84,2.45,1.65,7.77.77,10.67.91a1.54,1.54,0,0,0,1.45-1.1c1-2.63,3.73-7,3.57-9.79-.08-1.32-1.36-2.85-2-3.94q-1.81-3.26-3.67-6.49a14.36,14.36,0,0,1,13.39,5.3c4.83,5.64,3.78,13.14-.52,18.75a1.5,1.5,0,0,0,.23,1.82c12.89,12.58,26.65,24.19,40.12,36.13,5.41,4.79,11,9.5,15.64,15.05C143.78,108.58,144.18,109,143.88,112.13Z"/><path class="cls-1" d="M138.89,106.61c-2-1.48-4.53-.44-6,1.34a1.12,1.12,0,0,0-.24.31,1.06,1.06,0,0,0-.19.47,4.59,4.59,0,0,0,1.68,5.72c2.16,1.29,4.93.31,6.38-1.6C142.24,110.65,140.88,108.07,138.89,106.61Zm-.47,5.26a2.73,2.73,0,0,1-3,.73,2.35,2.35,0,0,1-.84-3.21c.75-1.06,2.12-1.66,3.2-.78S139.61,110.75,138.42,111.88Z"/><line class="cls-2" x1="59.33" y1="75.89" x2="2.08" y2="75.89"/><line class="cls-2" x1="185.92" y1="75.89" x2="128.67" y2="75.89"/></svg>