<svg id="Layer_1" data-name="Layer 1" xmlns="http://www.w3.org/2000/svg" viewBox="0 0 188 150.67"><defs><style>.cls-1{fill:#4d4d4d;}.cls-2{fill:none;stroke-miterlimit:10;}.cls-2,.cls-3{stroke:#4d4d4d;stroke-linecap:round;stroke-width:2px;}.cls-3{fill:#fff;stroke-linejoin:round;}</style></defs><title>ИКОНКА</title><path class="cls-1" d="M118.15,60.54c-10.55-9.41-26.65-10.65-39-4.24-12.61,6.57-20.94,20.52-18.9,34.85,2.33,16.4,21.18,24.87,36,25.24a33.82,33.82,0,0,0,19-5.07c5.89-3.54,9.68-8.5,12.24-14.88C132.33,84.29,127.84,69.19,118.15,60.54Zm9.19,25.56c-3.09.65-6.19,1.16-9.29,1.56,0-1.31-.05-2.65-.17-4a44.09,44.09,0,0,0-2.16-10.46,44.15,44.15,0,0,0,6.56-4.35A32.86,32.86,0,0,1,127.33,86.1ZM76.4,88a35,35,0,0,1,1.87-13.29A61.12,61.12,0,0,0,92.1,78a32.68,32.68,0,0,0,5.58.25q.55,5.42.84,10.86l-3.64.13c-6.1.21-12.27.35-18.39.05C76.45,88.89,76.42,88.45,76.4,88Zm21-11.89a33.15,33.15,0,0,1-6.92-.47,64.45,64.45,0,0,1-11.48-2.93c.45-1,.95-2.09,1.52-3.14,3.16-5.85,7.57-11.44,13.48-14.66Q96.27,65.44,97.45,76.11ZM96.2,54.89c8.27,3.07,13.86,9.5,16.92,17.26A39.62,39.62,0,0,1,99.56,76Q98.38,65.37,96.2,54.89Zm-1.32,36.5,3.74-.14q.16,3.75.2,7.51H96.91a58,58,0,0,0-16.18,2.69,26.93,26.93,0,0,1-4-10C82.8,91.72,88.87,91.59,94.88,91.39Zm2,9.5,1.93,0q0,6.56-.37,13.12A29.17,29.17,0,0,1,82,103.29,55.82,55.82,0,0,1,96.91,100.89Zm-5,13.05A42,42,0,0,1,73.15,107a42.87,42.87,0,0,1,6.7-3A31.85,31.85,0,0,0,91.88,113.94Zm9.06-13a55.17,55.17,0,0,1,10.88,1.29c-2.8,4.81-6.23,8.75-11.23,11.36Q100.95,107.23,100.95,100.9Zm0-2.11q0-3.82-.2-7.63c5.06-.23,10.09-.55,15.1-1.11a25.69,25.69,0,0,1-2.95,10.24A57.07,57.07,0,0,0,100.94,98.79Zm-.3-9.74q-.29-5.47-.84-10.91a41.68,41.68,0,0,0,14-4,41.86,41.86,0,0,1,2,10.31c.08,1.2.12,2.36.1,3.49C110.85,88.5,105.76,88.82,100.63,89ZM121.1,67A40.7,40.7,0,0,1,115,71.18a31.83,31.83,0,0,0-14-16.41,38.72,38.72,0,0,1,11.62,4.54A26.83,26.83,0,0,1,121.1,67ZM75.84,60.89A33.87,33.87,0,0,1,90,55,40.25,40.25,0,0,0,78.75,68.5c-.62,1.14-1.16,2.27-1.64,3.41A30,30,0,0,1,69.41,67,34.33,34.33,0,0,1,75.84,60.89Zm-7.71,7.83a33.2,33.2,0,0,0,8.2,5.18,37.27,37.27,0,0,0-2,15.22v.08a89.12,89.12,0,0,1-12.43-1.66C61.7,80.92,64.18,74.22,68.13,68.72ZM63.91,96.2a22.24,22.24,0,0,1-1.82-6.48,93.78,93.78,0,0,0,12.49,1.59,28.2,28.2,0,0,0,4.06,10.86,43.43,43.43,0,0,0-7.3,3.45A26.26,26.26,0,0,1,63.91,96.2ZM105,113.33a32.42,32.42,0,0,0,9-10.59,32.94,32.94,0,0,1,5.69,2.22A30.4,30.4,0,0,1,105,113.33Zm16.1-10a34.48,34.48,0,0,0-6.12-2.48,28.09,28.09,0,0,0,3-11.07c3.09-.39,6.18-.89,9.27-1.52a25.5,25.5,0,0,1-.42,3A27.67,27.67,0,0,1,121.08,103.33Z"/><path class="cls-1" d="M61.94,69.26a43,43,0,0,1,9.53-12.13c.76-.68-.36-1.8-1.12-1.12a44.23,44.23,0,0,0-9.78,12.45C60.1,69.36,61.47,70.16,61.94,69.26Z"/><path class="cls-1" d="M62.08,63.53A18.4,18.4,0,0,1,65.47,59c.73-.72-.39-1.84-1.12-1.12a19.8,19.8,0,0,0-3.63,4.9C60.24,63.63,61.61,64.43,62.08,63.53Z"/><path class="cls-1" d="M123.2,108.34a25.94,25.94,0,0,1-10.79,7.56c-.95.35-.54,1.88.42,1.53a27.51,27.51,0,0,0,11.49-8C125,108.69,123.87,107.56,123.2,108.34Z"/><path class="cls-1" d="M121.84,113.61a9.27,9.27,0,0,1-3.05,2.39c-.92.44-.12,1.81.8,1.37a10.37,10.37,0,0,0,3.37-2.64C123.62,114,122.51,112.83,121.84,113.61Z"/><line class="cls-2" x1="43.45" y1="79.92" x2="2.36" y2="79.92"/><line class="cls-2" x1="186.2" y1="79.92" x2="143.79" y2="79.92"/><path class="cls-3" d="M104.15,25.46A15.44,15.44,0,0,0,88.72,40.9c0,9.27,15.43,31,15.43,31s15.44-22,15.44-31A15.44,15.44,0,0,0,104.15,25.46Zm0,19.48a5.79,5.79,0,1,1,5.79-5.79A5.79,5.79,0,0,1,104.15,44.95Z"/><path class="cls-3" d="M143.26,58.55a10.19,10.19,0,0,0-14.33-1.39C124.2,61,119.59,78,119.59,78s17.67-1.35,22.28-5.14A10.19,10.19,0,0,0,143.26,58.55Zm-9.92,8.17a3.82,3.82,0,1,1,5.37.52A3.82,3.82,0,0,1,133.34,66.71Z"/></svg>